<svg width="1976" height="1200" viewBox="0 0 1976 1200" fill="none" xmlns="http://www.w3.org/2000/svg">
<g clip-path="url(#clip0_412_9373)">
<rect width="1976" height="1200" fill="white"/>
<mask id="mask0_412_9373" style="mask-type:alpha" maskUnits="userSpaceOnUse" x="0" y="0" width="1976" height="1200">
<rect width="1976" height="1200" fill="#D9D9D9"/>
</mask>
<g mask="url(#mask0_412_9373)">
<g clip-path="url(#clip1_412_9373)">
<path d="M1616.63 302.532L1627.47 321.3H1605.79L1616.63 302.532Z" stroke="#D6EAE3" stroke-width="4" stroke-miterlimit="10"/>
<path d="M1627.47 321.3L1638.31 340.075H1616.63L1627.47 321.3Z" stroke="#D6EAE3" stroke-width="4" stroke-miterlimit="10"/>
<path d="M1605.79 321.3L1616.63 340.075H1594.95L1605.79 321.3Z" stroke="#D6EAE3" stroke-width="4" stroke-miterlimit="10"/>
<path d="M1638.31 340.075L1649.15 358.85H1627.47L1638.31 340.075Z" stroke="#D6EAE3" stroke-width="4" stroke-miterlimit="10"/>
<path d="M1649.15 358.85L1659.99 377.618H1638.31L1649.15 358.85Z" stroke="#D6EAE3" stroke-width="4" stroke-miterlimit="10"/>
<path d="M1627.47 358.85L1638.31 377.618H1616.63L1627.47 358.85Z" stroke="#D6EAE3" stroke-width="4" stroke-miterlimit="10"/>
<path d="M1594.95 340.075L1605.79 358.85H1584.1L1594.95 340.075Z" stroke="#D6EAE3" stroke-width="4" stroke-miterlimit="10"/>
<path d="M1605.79 358.85L1616.63 377.618H1594.95L1605.79 358.85Z" stroke="#D6EAE3" stroke-width="4" stroke-miterlimit="10"/>
<path d="M1584.1 358.85L1594.95 377.618H1573.26L1584.1 358.85Z" stroke="#D6EAE3" stroke-width="4" stroke-miterlimit="10"/>
<path d="M1659.99 377.618L1670.83 396.393H1649.15L1659.99 377.618Z" stroke="#D6EAE3" stroke-width="4" stroke-miterlimit="10"/>
<path d="M1670.83 396.393L1681.68 415.168H1659.99L1670.83 396.393Z" stroke="#D6EAE3" stroke-width="4" stroke-miterlimit="10"/>
<path d="M1649.15 396.393L1659.99 415.168H1638.31L1649.15 396.393Z" stroke="#D6EAE3" stroke-width="4" stroke-miterlimit="10"/>
<path d="M1681.68 415.168L1692.52 433.943H1670.83L1681.68 415.168Z" stroke="#D6EAE3" stroke-width="4" stroke-miterlimit="10"/>
<path d="M1692.52 433.943L1703.35 452.711H1681.68L1692.52 433.943Z" stroke="#D6EAE3" stroke-width="4" stroke-miterlimit="10"/>
<path d="M1670.83 433.943L1681.68 452.711H1659.99L1670.83 433.943Z" stroke="#D6EAE3" stroke-width="4" stroke-miterlimit="10"/>
<path d="M1638.31 415.168L1649.15 433.943H1627.47L1638.31 415.168Z" stroke="#D6EAE3" stroke-width="4" stroke-miterlimit="10"/>
<path d="M1649.15 433.943L1659.99 452.711H1638.31L1649.15 433.943Z" stroke="#D6EAE3" stroke-width="4" stroke-miterlimit="10"/>
<path d="M1627.47 433.943L1638.31 452.711H1616.63L1627.47 433.943Z" stroke="#D6EAE3" stroke-width="4" stroke-miterlimit="10"/>
<path d="M1573.26 377.618L1584.1 396.393H1562.43L1573.26 377.618Z" stroke="#D6EAE3" stroke-width="4" stroke-miterlimit="10"/>
<path d="M1584.1 396.393L1594.95 415.168H1573.26L1584.1 396.393Z" stroke="#D6EAE3" stroke-width="4" stroke-miterlimit="10"/>
<path d="M1562.43 396.393L1573.26 415.168H1551.59L1562.43 396.393Z" stroke="#D6EAE3" stroke-width="4" stroke-miterlimit="10"/>
<path d="M1594.95 415.168L1605.79 433.943H1584.1L1594.95 415.168Z" stroke="#D6EAE3" stroke-width="4" stroke-miterlimit="10"/>
<path d="M1605.79 433.943L1616.63 452.711H1594.95L1605.79 433.943Z" stroke="#D6EAE3" stroke-width="4" stroke-miterlimit="10"/>
<path d="M1584.1 433.943L1594.95 452.711H1573.26L1584.1 433.943Z" stroke="#D6EAE3" stroke-width="4" stroke-miterlimit="10"/>
<path d="M1551.59 415.168L1562.43 433.943H1540.74L1551.59 415.168Z" stroke="#D6EAE3" stroke-width="4" stroke-miterlimit="10"/>
<path d="M1562.43 433.943L1573.26 452.711H1551.59L1562.43 433.943Z" stroke="#D6EAE3" stroke-width="4" stroke-miterlimit="10"/>
<path d="M1540.74 433.943L1551.59 452.711H1529.9L1540.74 433.943Z" stroke="#D6EAE3" stroke-width="4" stroke-miterlimit="10"/>
<path d="M1617.03 302.419L1703.92 453.147H1529.43L1617.03 302.419Z" stroke="#D6EAE3" stroke-width="10" stroke-miterlimit="10"/>
<path d="M1616.21 447.876L1577.38 380.5H1655.38L1616.21 447.876Z" stroke="#D6EAE3" stroke-width="10" stroke-miterlimit="10"/>
<path d="M1440.01 302.532L1450.85 321.3H1429.17L1440.01 302.532Z" stroke="#D6EAE3" stroke-width="4" stroke-miterlimit="10"/>
<path d="M1450.85 321.3L1461.7 340.075H1440.01L1450.85 321.3Z" stroke="#D6EAE3" stroke-width="4" stroke-miterlimit="10"/>
<path d="M1429.17 321.3L1440.01 340.075H1418.33L1429.17 321.3Z" stroke="#D6EAE3" stroke-width="4" stroke-miterlimit="10"/>
<path d="M1461.7 340.075L1472.54 358.85H1450.85L1461.7 340.075Z" stroke="#D6EAE3" stroke-width="4" stroke-miterlimit="10"/>
<path d="M1472.54 358.85L1483.37 377.618H1461.7L1472.54 358.85Z" stroke="#D6EAE3" stroke-width="4" stroke-miterlimit="10"/>
<path d="M1450.85 358.85L1461.7 377.618H1440.01L1450.85 358.85Z" stroke="#D6EAE3" stroke-width="4" stroke-miterlimit="10"/>
<path d="M1418.33 340.075L1429.17 358.85H1407.49L1418.33 340.075Z" stroke="#D6EAE3" stroke-width="4" stroke-miterlimit="10"/>
<path d="M1429.17 358.85L1440.01 377.618H1418.33L1429.17 358.85Z" stroke="#D6EAE3" stroke-width="4" stroke-miterlimit="10"/>
<path d="M1407.49 358.85L1418.33 377.618H1396.65L1407.49 358.85Z" stroke="#D6EAE3" stroke-width="4" stroke-miterlimit="10"/>
<path d="M1483.37 377.618L1494.21 396.393H1472.54L1483.37 377.618Z" stroke="#D6EAE3" stroke-width="4" stroke-miterlimit="10"/>
<path d="M1494.21 396.393L1505.06 415.168H1483.37L1494.21 396.393Z" stroke="#D6EAE3" stroke-width="4" stroke-miterlimit="10"/>
<path d="M1472.54 396.393L1483.37 415.168H1461.7L1472.54 396.393Z" stroke="#D6EAE3" stroke-width="4" stroke-miterlimit="10"/>
<path d="M1505.06 415.168L1515.9 433.943H1494.21L1505.06 415.168Z" stroke="#D6EAE3" stroke-width="4" stroke-miterlimit="10"/>
<path d="M1515.9 433.943L1526.74 452.711H1505.06L1515.9 433.943Z" stroke="#D6EAE3" stroke-width="4" stroke-miterlimit="10"/>
<path d="M1494.21 433.943L1505.06 452.711H1483.37L1494.21 433.943Z" stroke="#D6EAE3" stroke-width="4" stroke-miterlimit="10"/>
<path d="M1461.7 415.168L1472.54 433.943H1450.85L1461.7 415.168Z" stroke="#D6EAE3" stroke-width="4" stroke-miterlimit="10"/>
<path d="M1472.54 433.943L1483.37 452.711H1461.7L1472.54 433.943Z" stroke="#D6EAE3" stroke-width="4" stroke-miterlimit="10"/>
<path d="M1450.85 433.943L1461.7 452.711H1440.01L1450.85 433.943Z" stroke="#D6EAE3" stroke-width="4" stroke-miterlimit="10"/>
<path d="M1396.65 377.618L1407.49 396.393H1385.81L1396.65 377.618Z" stroke="#D6EAE3" stroke-width="4" stroke-miterlimit="10"/>
<path d="M1407.49 396.393L1418.33 415.168H1396.65L1407.49 396.393Z" stroke="#D6EAE3" stroke-width="4" stroke-miterlimit="10"/>
<path d="M1385.81 396.393L1396.65 415.168H1374.96L1385.81 396.393Z" stroke="#D6EAE3" stroke-width="4" stroke-miterlimit="10"/>
<path d="M1418.33 415.168L1429.17 433.943H1407.49L1418.33 415.168Z" stroke="#D6EAE3" stroke-width="4" stroke-miterlimit="10"/>
<path d="M1429.17 433.943L1440.01 452.711H1418.33L1429.17 433.943Z" stroke="#D6EAE3" stroke-width="4" stroke-miterlimit="10"/>
<path d="M1407.49 433.943L1418.33 452.711H1396.65L1407.49 433.943Z" stroke="#D6EAE3" stroke-width="4" stroke-miterlimit="10"/>
<path d="M1374.96 415.168L1385.81 433.943H1364.12L1374.96 415.168Z" stroke="#D6EAE3" stroke-width="4" stroke-miterlimit="10"/>
<path d="M1385.81 433.943L1396.65 452.711H1374.96L1385.81 433.943Z" stroke="#D6EAE3" stroke-width="4" stroke-miterlimit="10"/>
<path d="M1364.12 433.943L1374.96 452.711H1353.28L1364.12 433.943Z" stroke="#D6EAE3" stroke-width="4" stroke-miterlimit="10"/>
<path d="M1440.41 302.419L1527.3 453.147H1352.81L1440.41 302.419Z" stroke="#D6EAE3" stroke-width="10" stroke-miterlimit="10"/>
<path d="M1440.6 447.876L1401.76 380.5H1479.76L1440.6 447.876Z" stroke="#D6EAE3" stroke-width="10" stroke-miterlimit="10"/>
<path d="M1528.56 150.292L1539.41 169.067H1517.72L1528.56 150.292Z" stroke="#D6EAE3" stroke-width="4" stroke-miterlimit="10"/>
<path d="M1539.41 169.067L1550.25 187.842H1528.56L1539.41 169.067Z" stroke="#D6EAE3" stroke-width="4" stroke-miterlimit="10"/>
<path d="M1517.72 169.067L1528.56 187.842H1506.88L1517.72 169.067Z" stroke="#D6EAE3" stroke-width="4" stroke-miterlimit="10"/>
<path d="M1550.25 187.842L1561.08 206.617H1539.41L1550.25 187.842Z" stroke="#D6EAE3" stroke-width="4" stroke-miterlimit="10"/>
<path d="M1561.08 206.617L1571.93 225.385H1550.25L1561.08 206.617Z" stroke="#D6EAE3" stroke-width="4" stroke-miterlimit="10"/>
<path d="M1539.41 206.617L1550.25 225.385H1528.56L1539.41 206.617Z" stroke="#D6EAE3" stroke-width="4" stroke-miterlimit="10"/>
<path d="M1506.88 187.842L1517.72 206.617H1496.04L1506.88 187.842Z" stroke="#D6EAE3" stroke-width="4" stroke-miterlimit="10"/>
<path d="M1517.72 206.617L1528.56 225.385H1506.88L1517.72 206.617Z" stroke="#D6EAE3" stroke-width="4" stroke-miterlimit="10"/>
<path d="M1496.04 206.617L1506.88 225.385H1485.2L1496.04 206.617Z" stroke="#D6EAE3" stroke-width="4" stroke-miterlimit="10"/>
<path d="M1571.93 225.385L1582.77 244.16H1561.09L1571.93 225.385Z" stroke="#D6EAE3" stroke-width="4" stroke-miterlimit="10"/>
<path d="M1582.77 244.16L1593.61 262.935H1571.93L1582.77 244.16Z" stroke="#D6EAE3" stroke-width="4" stroke-miterlimit="10"/>
<path d="M1561.09 244.16L1571.93 262.935H1550.25L1561.09 244.16Z" stroke="#D6EAE3" stroke-width="4" stroke-miterlimit="10"/>
<path d="M1593.61 262.935L1604.45 281.709H1582.77L1593.61 262.935Z" stroke="#D6EAE3" stroke-width="4" stroke-miterlimit="10"/>
<path d="M1604.45 281.709L1615.29 300.478H1593.61L1604.45 281.709Z" stroke="#D6EAE3" stroke-width="4" stroke-miterlimit="10"/>
<path d="M1582.77 281.709L1593.61 300.478H1571.93L1582.77 281.709Z" stroke="#D6EAE3" stroke-width="4" stroke-miterlimit="10"/>
<path d="M1550.25 262.935L1561.08 281.709H1539.41L1550.25 262.935Z" stroke="#D6EAE3" stroke-width="4" stroke-miterlimit="10"/>
<path d="M1561.08 281.709L1571.93 300.478H1550.25L1561.08 281.709Z" stroke="#D6EAE3" stroke-width="4" stroke-miterlimit="10"/>
<path d="M1539.41 281.709L1550.25 300.478H1528.56L1539.41 281.709Z" stroke="#D6EAE3" stroke-width="4" stroke-miterlimit="10"/>
<path d="M1485.2 225.385L1496.04 244.16H1474.36L1485.2 225.385Z" stroke="#D6EAE3" stroke-width="4" stroke-miterlimit="10"/>
<path d="M1496.04 244.16L1506.88 262.935H1485.2L1496.04 244.16Z" stroke="#D6EAE3" stroke-width="4" stroke-miterlimit="10"/>
<path d="M1474.36 244.16L1485.2 262.935H1463.52L1474.36 244.16Z" stroke="#D6EAE3" stroke-width="4" stroke-miterlimit="10"/>
<path d="M1506.88 262.935L1517.72 281.709H1496.04L1506.88 262.935Z" stroke="#D6EAE3" stroke-width="4" stroke-miterlimit="10"/>
<path d="M1517.72 281.709L1528.56 300.478H1506.88L1517.72 281.709Z" stroke="#D6EAE3" stroke-width="4" stroke-miterlimit="10"/>
<path d="M1496.04 281.709L1506.88 300.478H1485.2L1496.04 281.709Z" stroke="#D6EAE3" stroke-width="4" stroke-miterlimit="10"/>
<path d="M1463.52 262.935L1474.36 281.709H1452.68L1463.52 262.935Z" stroke="#D6EAE3" stroke-width="4" stroke-miterlimit="10"/>
<path d="M1474.36 281.709L1485.2 300.478H1463.52L1474.36 281.709Z" stroke="#D6EAE3" stroke-width="4" stroke-miterlimit="10"/>
<path d="M1452.68 281.709L1463.52 300.478H1441.83L1452.68 281.709Z" stroke="#D6EAE3" stroke-width="4" stroke-miterlimit="10"/>
<path d="M1528.97 150.187L1615.85 300.914H1441.36L1528.97 150.187Z" stroke="#D6EAE3" stroke-width="10" stroke-miterlimit="10"/>
<path d="M1528.15 295.643L1489.31 228.267H1567.31L1528.15 295.643Z" stroke="#D6EAE3" stroke-width="10" stroke-miterlimit="10"/>
<path d="M1439.95 -3.06348L1450.78 15.7048H1429.11L1439.95 -3.06348Z" stroke="#D6EAE3" stroke-width="4" stroke-miterlimit="10"/>
<path d="M1450.78 15.7046L1461.62 34.4795H1439.95L1450.78 15.7046Z" stroke="#D6EAE3" stroke-width="4" stroke-miterlimit="10"/>
<path d="M1429.11 15.7046L1439.95 34.4795H1418.26L1429.11 15.7046Z" stroke="#D6EAE3" stroke-width="4" stroke-miterlimit="10"/>
<path d="M1461.62 34.4795L1472.47 53.2544H1450.78L1461.62 34.4795Z" stroke="#D6EAE3" stroke-width="4" stroke-miterlimit="10"/>
<path d="M1472.47 53.2544L1483.31 72.0293H1461.62L1472.47 53.2544Z" stroke="#D6EAE3" stroke-width="4" stroke-miterlimit="10"/>
<path d="M1450.78 53.2544L1461.62 72.0293H1439.95L1450.78 53.2544Z" stroke="#D6EAE3" stroke-width="4" stroke-miterlimit="10"/>
<path d="M1418.26 34.4795L1429.11 53.2544H1407.42L1418.26 34.4795Z" stroke="#D6EAE3" stroke-width="4" stroke-miterlimit="10"/>
<path d="M1429.11 53.2544L1439.95 72.0293H1418.26L1429.11 53.2544Z" stroke="#D6EAE3" stroke-width="4" stroke-miterlimit="10"/>
<path d="M1407.42 53.2544L1418.26 72.0293H1396.58L1407.42 53.2544Z" stroke="#D6EAE3" stroke-width="4" stroke-miterlimit="10"/>
<path d="M1483.31 72.0293L1494.15 90.7976H1472.47L1483.31 72.0293Z" stroke="#D6EAE3" stroke-width="4" stroke-miterlimit="10"/>
<path d="M1494.15 90.7974L1504.99 109.572H1483.31L1494.15 90.7974Z" stroke="#D6EAE3" stroke-width="4" stroke-miterlimit="10"/>
<path d="M1472.47 90.7974L1483.31 109.572H1461.62L1472.47 90.7974Z" stroke="#D6EAE3" stroke-width="4" stroke-miterlimit="10"/>
<path d="M1504.99 109.572L1515.83 128.347H1494.15L1504.99 109.572Z" stroke="#D6EAE3" stroke-width="4" stroke-miterlimit="10"/>
<path d="M1515.83 128.347L1526.67 147.122H1504.99L1515.83 128.347Z" stroke="#D6EAE3" stroke-width="4" stroke-miterlimit="10"/>
<path d="M1494.15 128.347L1504.99 147.122H1483.31L1494.15 128.347Z" stroke="#D6EAE3" stroke-width="4" stroke-miterlimit="10"/>
<path d="M1461.62 109.572L1472.47 128.347H1450.78L1461.62 109.572Z" stroke="#D6EAE3" stroke-width="4" stroke-miterlimit="10"/>
<path d="M1472.47 128.347L1483.31 147.122H1461.62L1472.47 128.347Z" stroke="#D6EAE3" stroke-width="4" stroke-miterlimit="10"/>
<path d="M1450.78 128.347L1461.62 147.122H1439.95L1450.78 128.347Z" stroke="#D6EAE3" stroke-width="4" stroke-miterlimit="10"/>
<path d="M1396.58 72.0293L1407.42 90.7976H1385.74L1396.58 72.0293Z" stroke="#D6EAE3" stroke-width="4" stroke-miterlimit="10"/>
<path d="M1407.42 90.7974L1418.26 109.572H1396.58L1407.42 90.7974Z" stroke="#D6EAE3" stroke-width="4" stroke-miterlimit="10"/>
<path d="M1385.74 90.7974L1396.58 109.572H1374.9L1385.74 90.7974Z" stroke="#D6EAE3" stroke-width="4" stroke-miterlimit="10"/>
<path d="M1418.26 109.572L1429.11 128.347H1407.42L1418.26 109.572Z" stroke="#D6EAE3" stroke-width="4" stroke-miterlimit="10"/>
<path d="M1429.11 128.347L1439.95 147.122H1418.26L1429.11 128.347Z" stroke="#D6EAE3" stroke-width="4" stroke-miterlimit="10"/>
<path d="M1407.42 128.347L1418.26 147.122H1396.58L1407.42 128.347Z" stroke="#D6EAE3" stroke-width="4" stroke-miterlimit="10"/>
<path d="M1374.9 109.572L1385.74 128.347H1364.06L1374.9 109.572Z" stroke="#D6EAE3" stroke-width="4" stroke-miterlimit="10"/>
<path d="M1385.74 128.347L1396.58 147.122H1374.9L1385.74 128.347Z" stroke="#D6EAE3" stroke-width="4" stroke-miterlimit="10"/>
<path d="M1364.06 128.347L1374.9 147.122H1353.22L1364.06 128.347Z" stroke="#D6EAE3" stroke-width="4" stroke-miterlimit="10"/>
<path d="M1440.35 -3.17578L1527.23 147.552H1352.74L1440.35 -3.17578Z" stroke="#D6EAE3" stroke-width="10" stroke-miterlimit="10"/>
<path d="M1439.84 142.87L1401 75H1479L1439.84 142.87Z" stroke="#99D2EB" stroke-width="10" stroke-miterlimit="10"/>
<path d="M1263.33 -3.06348L1274.17 15.7048H1252.49L1263.33 -3.06348Z" stroke="#D6EAE3" stroke-width="4" stroke-miterlimit="10"/>
<path d="M1274.17 15.7046L1285.01 34.4795H1263.33L1274.17 15.7046Z" stroke="#D6EAE3" stroke-width="4" stroke-miterlimit="10"/>
<path d="M1252.49 15.7046L1263.33 34.4795H1241.64L1252.49 15.7046Z" stroke="#D6EAE3" stroke-width="4" stroke-miterlimit="10"/>
<path d="M1285.01 34.4795L1295.85 53.2544H1274.17L1285.01 34.4795Z" stroke="#D6EAE3" stroke-width="4" stroke-miterlimit="10"/>
<path d="M1295.85 53.2544L1306.69 72.0293H1285.01L1295.85 53.2544Z" stroke="#D6EAE3" stroke-width="4" stroke-miterlimit="10"/>
<path d="M1274.17 53.2544L1285.01 72.0293H1263.33L1274.17 53.2544Z" stroke="#D6EAE3" stroke-width="4" stroke-miterlimit="10"/>
<path d="M1241.64 34.4795L1252.49 53.2544H1230.8L1241.64 34.4795Z" stroke="#D6EAE3" stroke-width="4" stroke-miterlimit="10"/>
<path d="M1252.49 53.2544L1263.33 72.0293H1241.64L1252.49 53.2544Z" stroke="#D6EAE3" stroke-width="4" stroke-miterlimit="10"/>
<path d="M1230.8 53.2544L1241.64 72.0293H1219.97L1230.8 53.2544Z" stroke="#D6EAE3" stroke-width="4" stroke-miterlimit="10"/>
<path d="M1306.69 72.0293L1317.53 90.7976H1295.85L1306.69 72.0293Z" stroke="#D6EAE3" stroke-width="4" stroke-miterlimit="10"/>
<path d="M1317.53 90.7974L1328.37 109.572H1306.69L1317.53 90.7974Z" stroke="#D6EAE3" stroke-width="4" stroke-miterlimit="10"/>
<path d="M1295.85 90.7974L1306.69 109.572H1285.01L1295.85 90.7974Z" stroke="#D6EAE3" stroke-width="4" stroke-miterlimit="10"/>
<path d="M1328.37 109.572L1339.22 128.347H1317.53L1328.37 109.572Z" stroke="#D6EAE3" stroke-width="4" stroke-miterlimit="10"/>
<path d="M1339.22 128.347L1350.06 147.122H1328.37L1339.22 128.347Z" stroke="#D6EAE3" stroke-width="4" stroke-miterlimit="10"/>
<path d="M1317.53 128.347L1328.37 147.122H1306.69L1317.53 128.347Z" stroke="#D6EAE3" stroke-width="4" stroke-miterlimit="10"/>
<path d="M1285.01 109.572L1295.85 128.347H1274.17L1285.01 109.572Z" stroke="#D6EAE3" stroke-width="4" stroke-miterlimit="10"/>
<path d="M1295.85 128.347L1306.69 147.122H1285.01L1295.85 128.347Z" stroke="#D6EAE3" stroke-width="4" stroke-miterlimit="10"/>
<path d="M1274.17 128.347L1285.01 147.122H1263.33L1274.17 128.347Z" stroke="#D6EAE3" stroke-width="4" stroke-miterlimit="10"/>
<path d="M1219.97 72.0293L1230.8 90.7976H1209.12L1219.97 72.0293Z" stroke="#D6EAE3" stroke-width="4" stroke-miterlimit="10"/>
<path d="M1230.8 90.7974L1241.64 109.572H1219.97L1230.8 90.7974Z" stroke="#D6EAE3" stroke-width="4" stroke-miterlimit="10"/>
<path d="M1209.12 90.7974L1219.97 109.572H1198.28L1209.12 90.7974Z" stroke="#D6EAE3" stroke-width="4" stroke-miterlimit="10"/>
<path d="M1241.64 109.572L1252.49 128.347H1230.8L1241.64 109.572Z" stroke="#D6EAE3" stroke-width="4" stroke-miterlimit="10"/>
<path d="M1252.49 128.347L1263.33 147.122H1241.64L1252.49 128.347Z" stroke="#D6EAE3" stroke-width="4" stroke-miterlimit="10"/>
<path d="M1230.8 128.347L1241.64 147.122H1219.97L1230.8 128.347Z" stroke="#D6EAE3" stroke-width="4" stroke-miterlimit="10"/>
<path d="M1198.28 109.572L1209.12 128.347H1187.44L1198.28 109.572Z" stroke="#D6EAE3" stroke-width="4" stroke-miterlimit="10"/>
<path d="M1209.12 128.347L1219.97 147.122H1198.28L1209.12 128.347Z" stroke="#D6EAE3" stroke-width="4" stroke-miterlimit="10"/>
<path d="M1187.44 128.347L1198.28 147.122H1176.6L1187.44 128.347Z" stroke="#D6EAE3" stroke-width="4" stroke-miterlimit="10"/>
<path d="M1263.73 -3.17578L1350.61 147.552H1176.13L1263.73 -3.17578Z" stroke="#D6EAE3" stroke-width="10" stroke-miterlimit="10"/>
<path d="M1262.91 142.281L1224.08 74.9048H1302.08L1262.91 142.281Z" stroke="#D6EAE3" stroke-width="10" stroke-miterlimit="10"/>
<path d="M1352.29 -155.409L1439.17 -4.68169H1264.68L1352.29 -155.409Z" stroke="#D6EAE3" stroke-width="10" stroke-miterlimit="10"/>
<path d="M1351.86 -8.20176L1311.45 -78.3286H1392.63L1351.86 -8.20176Z" stroke="#D6EAE3" stroke-width="10" stroke-miterlimit="10"/>
<path d="M1797.72 -2.19922L1808.56 16.5757H1786.88L1797.72 -2.19922Z" stroke="#D6EAE3" stroke-width="4" stroke-miterlimit="10"/>
<path d="M1808.56 16.5757L1819.4 35.344H1797.72L1808.56 16.5757Z" stroke="#D6EAE3" stroke-width="4" stroke-miterlimit="10"/>
<path d="M1786.88 16.5757L1797.72 35.344H1776.04L1786.88 16.5757Z" stroke="#D6EAE3" stroke-width="4" stroke-miterlimit="10"/>
<path d="M1819.4 35.3438L1830.24 54.1187H1808.56L1819.4 35.3438Z" stroke="#D6EAE3" stroke-width="4" stroke-miterlimit="10"/>
<path d="M1830.24 54.1187L1841.09 72.8935H1819.4L1830.24 54.1187Z" stroke="#D6EAE3" stroke-width="4" stroke-miterlimit="10"/>
<path d="M1808.56 54.1187L1819.4 72.8935H1797.72L1808.56 54.1187Z" stroke="#D6EAE3" stroke-width="4" stroke-miterlimit="10"/>
<path d="M1776.04 35.3438L1786.88 54.1187H1765.2L1776.04 35.3438Z" stroke="#D6EAE3" stroke-width="4" stroke-miterlimit="10"/>
<path d="M1786.88 54.1187L1797.72 72.8935H1776.04L1786.88 54.1187Z" stroke="#D6EAE3" stroke-width="4" stroke-miterlimit="10"/>
<path d="M1765.2 54.1187L1776.04 72.8935H1754.36L1765.2 54.1187Z" stroke="#D6EAE3" stroke-width="4" stroke-miterlimit="10"/>
<path d="M1841.09 72.8936L1851.93 91.6684H1830.24L1841.09 72.8936Z" stroke="#D6EAE3" stroke-width="4" stroke-miterlimit="10"/>
<path d="M1851.93 91.6685L1862.76 110.437H1841.09L1851.93 91.6685Z" stroke="#D6EAE3" stroke-width="4" stroke-miterlimit="10"/>
<path d="M1830.24 91.6685L1841.09 110.437H1819.4L1830.24 91.6685Z" stroke="#D6EAE3" stroke-width="4" stroke-miterlimit="10"/>
<path d="M1862.76 110.437L1873.6 129.211H1851.93L1862.76 110.437Z" stroke="#D6EAE3" stroke-width="4" stroke-miterlimit="10"/>
<path d="M1873.6 129.211L1884.45 147.986H1862.76L1873.6 129.211Z" stroke="#D6EAE3" stroke-width="4" stroke-miterlimit="10"/>
<path d="M1851.93 129.211L1862.76 147.986H1841.09L1851.93 129.211Z" stroke="#D6EAE3" stroke-width="4" stroke-miterlimit="10"/>
<path d="M1819.4 110.437L1830.24 129.211H1808.56L1819.4 110.437Z" stroke="#D6EAE3" stroke-width="4" stroke-miterlimit="10"/>
<path d="M1830.24 129.211L1841.09 147.986H1819.4L1830.24 129.211Z" stroke="#D6EAE3" stroke-width="4" stroke-miterlimit="10"/>
<path d="M1808.56 129.211L1819.4 147.986H1797.72L1808.56 129.211Z" stroke="#D6EAE3" stroke-width="4" stroke-miterlimit="10"/>
<path d="M1754.36 72.8936L1765.2 91.6684H1743.51L1754.36 72.8936Z" stroke="#D6EAE3" stroke-width="4" stroke-miterlimit="10"/>
<path d="M1765.2 91.6685L1776.04 110.437H1754.36L1765.2 91.6685Z" stroke="#D6EAE3" stroke-width="4" stroke-miterlimit="10"/>
<path d="M1743.51 91.6685L1754.36 110.437H1732.67L1743.51 91.6685Z" stroke="#D6EAE3" stroke-width="4" stroke-miterlimit="10"/>
<path d="M1776.04 110.437L1786.88 129.211H1765.2L1776.04 110.437Z" stroke="#D6EAE3" stroke-width="4" stroke-miterlimit="10"/>
<path d="M1786.88 129.211L1797.72 147.986H1776.04L1786.88 129.211Z" stroke="#D6EAE3" stroke-width="4" stroke-miterlimit="10"/>
<path d="M1765.2 129.211L1776.04 147.986H1754.36L1765.2 129.211Z" stroke="#D6EAE3" stroke-width="4" stroke-miterlimit="10"/>
<path d="M1732.67 110.437L1743.51 129.211H1721.84L1732.67 110.437Z" stroke="#D6EAE3" stroke-width="4" stroke-miterlimit="10"/>
<path d="M1743.51 129.211L1754.36 147.986H1732.67L1743.51 129.211Z" stroke="#D6EAE3" stroke-width="4" stroke-miterlimit="10"/>
<path d="M1721.84 129.211L1732.67 147.986H1710.99L1721.84 129.211Z" stroke="#D6EAE3" stroke-width="4" stroke-miterlimit="10"/>
<path d="M1798.13 -2.30469L1885 148.416H1710.52L1798.13 -2.30469Z" stroke="#D6EAE3" stroke-width="10" stroke-miterlimit="10"/>
<path d="M1798.31 143.146L1759.47 75.7695H1837.47L1798.31 143.146Z" stroke="#99D2EB" stroke-width="10" stroke-miterlimit="10"/>
<path d="M1621.11 -2.19922L1631.95 16.5757H1610.26L1621.11 -2.19922Z" stroke="#D6EAE3" stroke-width="4" stroke-miterlimit="10"/>
<path d="M1631.95 16.5757L1642.78 35.344H1621.11L1631.95 16.5757Z" stroke="#D6EAE3" stroke-width="4" stroke-miterlimit="10"/>
<path d="M1610.26 16.5757L1621.11 35.344H1599.42L1610.26 16.5757Z" stroke="#D6EAE3" stroke-width="4" stroke-miterlimit="10"/>
<path d="M1642.78 35.3438L1653.62 54.1187H1631.95L1642.78 35.3438Z" stroke="#D6EAE3" stroke-width="4" stroke-miterlimit="10"/>
<path d="M1653.62 54.1187L1664.47 72.8935H1642.78L1653.62 54.1187Z" stroke="#D6EAE3" stroke-width="4" stroke-miterlimit="10"/>
<path d="M1631.95 54.1187L1642.78 72.8935H1621.11L1631.95 54.1187Z" stroke="#D6EAE3" stroke-width="4" stroke-miterlimit="10"/>
<path d="M1599.42 35.3438L1610.26 54.1187H1588.58L1599.42 35.3438Z" stroke="#D6EAE3" stroke-width="4" stroke-miterlimit="10"/>
<path d="M1610.26 54.1187L1621.11 72.8935H1599.42L1610.26 54.1187Z" stroke="#D6EAE3" stroke-width="4" stroke-miterlimit="10"/>
<path d="M1588.58 54.1187L1599.42 72.8935H1577.74L1588.58 54.1187Z" stroke="#D6EAE3" stroke-width="4" stroke-miterlimit="10"/>
<path d="M1664.47 72.8936L1675.31 91.6684H1653.62L1664.47 72.8936Z" stroke="#D6EAE3" stroke-width="4" stroke-miterlimit="10"/>
<path d="M1675.31 91.6685L1686.15 110.437H1664.47L1675.31 91.6685Z" stroke="#D6EAE3" stroke-width="4" stroke-miterlimit="10"/>
<path d="M1653.62 91.6685L1664.47 110.437H1642.78L1653.62 91.6685Z" stroke="#D6EAE3" stroke-width="4" stroke-miterlimit="10"/>
<path d="M1686.15 110.437L1696.99 129.211H1675.31L1686.15 110.437Z" stroke="#D6EAE3" stroke-width="4" stroke-miterlimit="10"/>
<path d="M1696.99 129.211L1707.83 147.986H1686.15L1696.99 129.211Z" stroke="#D6EAE3" stroke-width="4" stroke-miterlimit="10"/>
<path d="M1675.31 129.211L1686.15 147.986H1664.47L1675.31 129.211Z" stroke="#D6EAE3" stroke-width="4" stroke-miterlimit="10"/>
<path d="M1642.78 110.437L1653.62 129.211H1631.95L1642.78 110.437Z" stroke="#D6EAE3" stroke-width="4" stroke-miterlimit="10"/>
<path d="M1653.62 129.211L1664.47 147.986H1642.78L1653.62 129.211Z" stroke="#D6EAE3" stroke-width="4" stroke-miterlimit="10"/>
<path d="M1631.95 129.211L1642.78 147.986H1621.11L1631.95 129.211Z" stroke="#D6EAE3" stroke-width="4" stroke-miterlimit="10"/>
<path d="M1577.74 72.8936L1588.58 91.6684H1566.9L1577.74 72.8936Z" stroke="#D6EAE3" stroke-width="4" stroke-miterlimit="10"/>
<path d="M1588.58 91.6685L1599.42 110.437H1577.74L1588.58 91.6685Z" stroke="#D6EAE3" stroke-width="4" stroke-miterlimit="10"/>
<path d="M1566.9 91.6685L1577.74 110.437H1556.06L1566.9 91.6685Z" stroke="#D6EAE3" stroke-width="4" stroke-miterlimit="10"/>
<path d="M1599.42 110.437L1610.26 129.211H1588.58L1599.42 110.437Z" stroke="#D6EAE3" stroke-width="4" stroke-miterlimit="10"/>
<path d="M1610.26 129.211L1621.11 147.986H1599.42L1610.26 129.211Z" stroke="#D6EAE3" stroke-width="4" stroke-miterlimit="10"/>
<path d="M1588.58 129.211L1599.42 147.986H1577.74L1588.58 129.211Z" stroke="#D6EAE3" stroke-width="4" stroke-miterlimit="10"/>
<path d="M1556.06 110.437L1566.9 129.211H1545.22L1556.06 110.437Z" stroke="#D6EAE3" stroke-width="4" stroke-miterlimit="10"/>
<path d="M1566.9 129.211L1577.74 147.986H1556.06L1566.9 129.211Z" stroke="#D6EAE3" stroke-width="4" stroke-miterlimit="10"/>
<path d="M1545.22 129.211L1556.06 147.986H1534.37L1545.22 129.211Z" stroke="#D6EAE3" stroke-width="4" stroke-miterlimit="10"/>
<path d="M1621.51 -2.30469L1708.39 148.416H1533.9L1621.51 -2.30469Z" stroke="#D6EAE3" stroke-width="10" stroke-miterlimit="10"/>
<path d="M1621.34 144L1582 76H1661L1621.34 144Z" stroke="#D6EAE3" stroke-width="10" stroke-miterlimit="10"/>
<path d="M1710.06 -154.544L1796.94 -3.81694H1622.45L1710.06 -154.544Z" stroke="#D6EAE3" stroke-width="10" stroke-miterlimit="10"/>
<path d="M1709.64 -7.33702L1669.22 -77.4639H1750.4L1709.64 -7.33702Z" stroke="#99D2EB" stroke-width="10" stroke-miterlimit="10"/>
<path d="M1797.76 302.532L1808.6 321.301H1786.92L1797.76 302.532Z" stroke="#D6EAE3" stroke-width="4" stroke-miterlimit="10"/>
<path d="M1808.6 321.301L1819.43 340.076H1797.76L1808.6 321.301Z" stroke="#D6EAE3" stroke-width="4" stroke-miterlimit="10"/>
<path d="M1786.92 321.301L1797.76 340.076H1776.07L1786.92 321.301Z" stroke="#D6EAE3" stroke-width="4" stroke-miterlimit="10"/>
<path d="M1819.43 340.075L1830.28 358.85H1808.6L1819.43 340.075Z" stroke="#D6EAE3" stroke-width="4" stroke-miterlimit="10"/>
<path d="M1830.28 358.85L1841.12 377.618H1819.43L1830.28 358.85Z" stroke="#D6EAE3" stroke-width="4" stroke-miterlimit="10"/>
<path d="M1808.6 358.85L1819.43 377.618H1797.76L1808.6 358.85Z" stroke="#D6EAE3" stroke-width="4" stroke-miterlimit="10"/>
<path d="M1776.07 340.075L1786.92 358.85H1765.23L1776.07 340.075Z" stroke="#D6EAE3" stroke-width="4" stroke-miterlimit="10"/>
<path d="M1786.92 358.85L1797.76 377.618H1776.07L1786.92 358.85Z" stroke="#D6EAE3" stroke-width="4" stroke-miterlimit="10"/>
<path d="M1765.23 358.85L1776.07 377.618H1754.39L1765.23 358.85Z" stroke="#D6EAE3" stroke-width="4" stroke-miterlimit="10"/>
<path d="M1841.12 377.619L1851.96 396.394H1830.28L1841.12 377.619Z" stroke="#D6EAE3" stroke-width="4" stroke-miterlimit="10"/>
<path d="M1851.96 396.394L1862.8 415.168H1841.12L1851.96 396.394Z" stroke="#D6EAE3" stroke-width="4" stroke-miterlimit="10"/>
<path d="M1830.28 396.394L1841.12 415.168H1819.43L1830.28 396.394Z" stroke="#D6EAE3" stroke-width="4" stroke-miterlimit="10"/>
<path d="M1862.8 415.168L1873.64 433.943H1851.96L1862.8 415.168Z" stroke="#D6EAE3" stroke-width="4" stroke-miterlimit="10"/>
<path d="M1873.64 433.943L1884.48 452.712H1862.8L1873.64 433.943Z" stroke="#D6EAE3" stroke-width="4" stroke-miterlimit="10"/>
<path d="M1851.96 433.943L1862.8 452.712H1841.12L1851.96 433.943Z" stroke="#D6EAE3" stroke-width="4" stroke-miterlimit="10"/>
<path d="M1819.43 415.168L1830.28 433.943H1808.6L1819.43 415.168Z" stroke="#D6EAE3" stroke-width="4" stroke-miterlimit="10"/>
<path d="M1830.28 433.943L1841.12 452.712H1819.43L1830.28 433.943Z" stroke="#D6EAE3" stroke-width="4" stroke-miterlimit="10"/>
<path d="M1808.6 433.943L1819.43 452.712H1797.76L1808.6 433.943Z" stroke="#D6EAE3" stroke-width="4" stroke-miterlimit="10"/>
<path d="M1754.39 377.619L1765.23 396.394H1743.55L1754.39 377.619Z" stroke="#D6EAE3" stroke-width="4" stroke-miterlimit="10"/>
<path d="M1765.23 396.394L1776.07 415.168H1754.39L1765.23 396.394Z" stroke="#D6EAE3" stroke-width="4" stroke-miterlimit="10"/>
<path d="M1743.55 396.394L1754.39 415.168H1732.71L1743.55 396.394Z" stroke="#D6EAE3" stroke-width="4" stroke-miterlimit="10"/>
<path d="M1776.07 415.168L1786.92 433.943H1765.23L1776.07 415.168Z" stroke="#D6EAE3" stroke-width="4" stroke-miterlimit="10"/>
<path d="M1786.92 433.943L1797.76 452.712H1776.07L1786.92 433.943Z" stroke="#D6EAE3" stroke-width="4" stroke-miterlimit="10"/>
<path d="M1765.23 433.943L1776.07 452.712H1754.39L1765.23 433.943Z" stroke="#D6EAE3" stroke-width="4" stroke-miterlimit="10"/>
<path d="M1732.71 415.168L1743.55 433.943H1721.87L1732.71 415.168Z" stroke="#D6EAE3" stroke-width="4" stroke-miterlimit="10"/>
<path d="M1743.55 433.943L1754.39 452.712H1732.71L1743.55 433.943Z" stroke="#D6EAE3" stroke-width="4" stroke-miterlimit="10"/>
<path d="M1721.87 433.943L1732.71 452.712H1711.03L1721.87 433.943Z" stroke="#D6EAE3" stroke-width="4" stroke-miterlimit="10"/>
<path d="M1798.16 302.42L1885.04 453.147H1710.55L1798.16 302.42Z" stroke="#D6EAE3" stroke-width="10" stroke-miterlimit="10"/>
<path d="M1798.34 447.877L1759.5 380.5H1837.5L1798.34 447.877Z" stroke="#D6EAE3" stroke-width="10" stroke-miterlimit="10"/>
<path d="M1707.65 459.744L1718.49 478.519H1696.8L1707.65 459.744Z" stroke="#D6EAE3" stroke-width="4" stroke-miterlimit="10"/>
<path d="M1718.49 478.519L1729.33 497.294H1707.65L1718.49 478.519Z" stroke="#D6EAE3" stroke-width="4" stroke-miterlimit="10"/>
<path d="M1696.8 478.519L1707.65 497.294H1685.96L1696.8 478.519Z" stroke="#D6EAE3" stroke-width="4" stroke-miterlimit="10"/>
<path d="M1729.33 497.294L1740.17 516.069H1718.49L1729.33 497.294Z" stroke="#D6EAE3" stroke-width="4" stroke-miterlimit="10"/>
<path d="M1740.17 516.069L1751.01 534.837H1729.33L1740.17 516.069Z" stroke="#D6EAE3" stroke-width="4" stroke-miterlimit="10"/>
<path d="M1718.49 516.069L1729.33 534.837H1707.65L1718.49 516.069Z" stroke="#D6EAE3" stroke-width="4" stroke-miterlimit="10"/>
<path d="M1685.96 497.294L1696.8 516.069H1675.12L1685.96 497.294Z" stroke="#D6EAE3" stroke-width="4" stroke-miterlimit="10"/>
<path d="M1696.8 516.069L1707.65 534.837H1685.96L1696.8 516.069Z" stroke="#D6EAE3" stroke-width="4" stroke-miterlimit="10"/>
<path d="M1675.12 516.069L1685.96 534.837H1664.28L1675.12 516.069Z" stroke="#D6EAE3" stroke-width="4" stroke-miterlimit="10"/>
<path d="M1751.01 534.837L1761.85 553.612H1740.17L1751.01 534.837Z" stroke="#D6EAE3" stroke-width="4" stroke-miterlimit="10"/>
<path d="M1761.85 553.612L1772.69 572.387H1751.01L1761.85 553.612Z" stroke="#D6EAE3" stroke-width="4" stroke-miterlimit="10"/>
<path d="M1740.17 553.612L1751.01 572.387H1729.33L1740.17 553.612Z" stroke="#D6EAE3" stroke-width="4" stroke-miterlimit="10"/>
<path d="M1772.69 572.387L1783.53 591.162H1761.85L1772.69 572.387Z" stroke="#D6EAE3" stroke-width="4" stroke-miterlimit="10"/>
<path d="M1783.53 591.162L1794.37 609.93H1772.69L1783.53 591.162Z" stroke="#D6EAE3" stroke-width="4" stroke-miterlimit="10"/>
<path d="M1761.85 591.162L1772.69 609.93H1751.01L1761.85 591.162Z" stroke="#D6EAE3" stroke-width="4" stroke-miterlimit="10"/>
<path d="M1729.33 572.387L1740.17 591.162H1718.49L1729.33 572.387Z" stroke="#D6EAE3" stroke-width="4" stroke-miterlimit="10"/>
<path d="M1740.17 591.162L1751.01 609.93H1729.33L1740.17 591.162Z" stroke="#D6EAE3" stroke-width="4" stroke-miterlimit="10"/>
<path d="M1718.49 591.162L1729.33 609.93H1707.65L1718.49 591.162Z" stroke="#D6EAE3" stroke-width="4" stroke-miterlimit="10"/>
<path d="M1664.28 534.837L1675.12 553.612H1653.44L1664.28 534.837Z" stroke="#D6EAE3" stroke-width="4" stroke-miterlimit="10"/>
<path d="M1675.12 553.612L1685.96 572.387H1664.28L1675.12 553.612Z" stroke="#D6EAE3" stroke-width="4" stroke-miterlimit="10"/>
<path d="M1653.44 553.612L1664.28 572.387H1642.6L1653.44 553.612Z" stroke="#D6EAE3" stroke-width="4" stroke-miterlimit="10"/>
<path d="M1685.96 572.387L1696.8 591.162H1675.12L1685.96 572.387Z" stroke="#D6EAE3" stroke-width="4" stroke-miterlimit="10"/>
<path d="M1696.8 591.162L1707.65 609.93H1685.96L1696.8 591.162Z" stroke="#D6EAE3" stroke-width="4" stroke-miterlimit="10"/>
<path d="M1675.12 591.162L1685.96 609.93H1664.28L1675.12 591.162Z" stroke="#D6EAE3" stroke-width="4" stroke-miterlimit="10"/>
<path d="M1642.6 572.387L1653.44 591.162H1631.76L1642.6 572.387Z" stroke="#D6EAE3" stroke-width="4" stroke-miterlimit="10"/>
<path d="M1653.44 591.162L1664.28 609.93H1642.6L1653.44 591.162Z" stroke="#D6EAE3" stroke-width="4" stroke-miterlimit="10"/>
<path d="M1631.76 591.162L1642.6 609.93H1620.92L1631.76 591.162Z" stroke="#D6EAE3" stroke-width="4" stroke-miterlimit="10"/>
<path d="M1708.05 459.639L1794.93 610.366H1620.45L1708.05 459.639Z" stroke="#D6EAE3" stroke-width="10" stroke-miterlimit="10"/>
<path d="M1707.23 605.089L1668.4 537.713H1746.4L1707.23 605.089Z" stroke="#99D2EB" stroke-width="10" stroke-miterlimit="10"/>
<path d="M1886.31 150.292L1897.15 169.067H1875.47L1886.31 150.292Z" stroke="#D6EAE3" stroke-width="4" stroke-miterlimit="10"/>
<path d="M1897.15 169.067L1907.99 187.842H1886.31L1897.15 169.067Z" stroke="#D6EAE3" stroke-width="4" stroke-miterlimit="10"/>
<path d="M1875.47 169.067L1886.31 187.842H1864.63L1875.47 169.067Z" stroke="#D6EAE3" stroke-width="4" stroke-miterlimit="10"/>
<path d="M1907.99 187.842L1918.83 206.617H1897.15L1907.99 187.842Z" stroke="#D6EAE3" stroke-width="4" stroke-miterlimit="10"/>
<path d="M1918.83 206.617L1929.67 225.385H1907.99L1918.83 206.617Z" stroke="#D6EAE3" stroke-width="4" stroke-miterlimit="10"/>
<path d="M1897.15 206.617L1907.99 225.385H1886.31L1897.15 206.617Z" stroke="#D6EAE3" stroke-width="4" stroke-miterlimit="10"/>
<path d="M1864.63 187.842L1875.47 206.617H1853.78L1864.63 187.842Z" stroke="#D6EAE3" stroke-width="4" stroke-miterlimit="10"/>
<path d="M1875.47 206.617L1886.31 225.385H1864.63L1875.47 206.617Z" stroke="#D6EAE3" stroke-width="4" stroke-miterlimit="10"/>
<path d="M1853.78 206.617L1864.63 225.385H1842.94L1853.78 206.617Z" stroke="#D6EAE3" stroke-width="4" stroke-miterlimit="10"/>
<path d="M1929.67 225.385L1940.51 244.16H1918.83L1929.67 225.385Z" stroke="#D6EAE3" stroke-width="4" stroke-miterlimit="10"/>
<path d="M1940.51 244.16L1951.35 262.935H1929.67L1940.51 244.16Z" stroke="#D6EAE3" stroke-width="4" stroke-miterlimit="10"/>
<path d="M1918.83 244.16L1929.67 262.935H1907.99L1918.83 244.16Z" stroke="#D6EAE3" stroke-width="4" stroke-miterlimit="10"/>
<path d="M1951.35 262.935L1962.19 281.709H1940.51L1951.35 262.935Z" stroke="#D6EAE3" stroke-width="4" stroke-miterlimit="10"/>
<path d="M1962.19 281.709L1973.03 300.478H1951.35L1962.19 281.709Z" stroke="#D6EAE3" stroke-width="4" stroke-miterlimit="10"/>
<path d="M1940.51 281.709L1951.35 300.478H1929.67L1940.51 281.709Z" stroke="#D6EAE3" stroke-width="4" stroke-miterlimit="10"/>
<path d="M1907.99 262.935L1918.83 281.709H1897.15L1907.99 262.935Z" stroke="#D6EAE3" stroke-width="4" stroke-miterlimit="10"/>
<path d="M1918.83 281.709L1929.67 300.478H1907.99L1918.83 281.709Z" stroke="#D6EAE3" stroke-width="4" stroke-miterlimit="10"/>
<path d="M1897.15 281.709L1907.99 300.478H1886.31L1897.15 281.709Z" stroke="#D6EAE3" stroke-width="4" stroke-miterlimit="10"/>
<path d="M1842.94 225.385L1853.78 244.16H1832.1L1842.94 225.385Z" stroke="#D6EAE3" stroke-width="4" stroke-miterlimit="10"/>
<path d="M1853.78 244.16L1864.63 262.935H1842.94L1853.78 244.16Z" stroke="#D6EAE3" stroke-width="4" stroke-miterlimit="10"/>
<path d="M1832.1 244.16L1842.94 262.935H1821.26L1832.1 244.16Z" stroke="#D6EAE3" stroke-width="4" stroke-miterlimit="10"/>
<path d="M1864.63 262.935L1875.47 281.709H1853.78L1864.63 262.935Z" stroke="#D6EAE3" stroke-width="4" stroke-miterlimit="10"/>
<path d="M1875.47 281.709L1886.31 300.478H1864.63L1875.47 281.709Z" stroke="#D6EAE3" stroke-width="4" stroke-miterlimit="10"/>
<path d="M1853.78 281.709L1864.63 300.478H1842.94L1853.78 281.709Z" stroke="#D6EAE3" stroke-width="4" stroke-miterlimit="10"/>
<path d="M1821.26 262.935L1832.1 281.709H1810.42L1821.26 262.935Z" stroke="#D6EAE3" stroke-width="4" stroke-miterlimit="10"/>
<path d="M1832.1 281.709L1842.94 300.478H1821.26L1832.1 281.709Z" stroke="#D6EAE3" stroke-width="4" stroke-miterlimit="10"/>
<path d="M1810.42 281.709L1821.26 300.478H1799.58L1810.42 281.709Z" stroke="#D6EAE3" stroke-width="4" stroke-miterlimit="10"/>
<path d="M1886.71 150.187L1973.59 300.914H1799.1L1886.71 150.187Z" stroke="#D6EAE3" stroke-width="10" stroke-miterlimit="10"/>
<path d="M1885.89 294.649L1847.05 227.267H1925.05L1885.89 294.649Z" stroke="#D6EAE3" stroke-width="10" stroke-miterlimit="10"/>
</g>
<g clip-path="url(#clip2_412_9373)">
<path d="M516.628 735.532L527.467 754.3H505.789L516.628 735.532Z" stroke="#D6EAE3" stroke-width="4" stroke-miterlimit="10"/>
<path d="M527.467 754.3L538.313 773.075H516.628L527.467 754.3Z" stroke="#D6EAE3" stroke-width="4" stroke-miterlimit="10"/>
<path d="M505.789 754.3L516.628 773.075H494.95L505.789 754.3Z" stroke="#D6EAE3" stroke-width="4" stroke-miterlimit="10"/>
<path d="M538.313 773.075L549.152 791.85H527.467L538.313 773.075Z" stroke="#D6EAE3" stroke-width="4" stroke-miterlimit="10"/>
<path d="M549.152 791.85L559.991 810.618H538.313L549.152 791.85Z" stroke="#D6EAE3" stroke-width="4" stroke-miterlimit="10"/>
<path d="M527.467 791.85L538.313 810.618H516.628L527.467 791.85Z" stroke="#D6EAE3" stroke-width="4" stroke-miterlimit="10"/>
<path d="M494.95 773.075L505.789 791.85H484.104L494.95 773.075Z" stroke="#D6EAE3" stroke-width="4" stroke-miterlimit="10"/>
<path d="M505.789 791.85L516.628 810.618H494.95L505.789 791.85Z" stroke="#D6EAE3" stroke-width="4" stroke-miterlimit="10"/>
<path d="M484.104 791.85L494.95 810.618H473.265L484.104 791.85Z" stroke="#D6EAE3" stroke-width="4" stroke-miterlimit="10"/>
<path d="M559.991 810.618L570.83 829.393H549.152L559.991 810.618Z" stroke="#D6EAE3" stroke-width="4" stroke-miterlimit="10"/>
<path d="M570.83 829.393L581.676 848.168H559.991L570.83 829.393Z" stroke="#D6EAE3" stroke-width="4" stroke-miterlimit="10"/>
<path d="M549.152 829.393L559.991 848.168H538.313L549.152 829.393Z" stroke="#D6EAE3" stroke-width="4" stroke-miterlimit="10"/>
<path d="M581.676 848.168L592.515 866.943H570.83L581.676 848.168Z" stroke="#D6EAE3" stroke-width="4" stroke-miterlimit="10"/>
<path d="M592.515 866.943L603.354 885.711H581.676L592.515 866.943Z" stroke="#D6EAE3" stroke-width="4" stroke-miterlimit="10"/>
<path d="M570.83 866.943L581.676 885.711H559.991L570.83 866.943Z" stroke="#D6EAE3" stroke-width="4" stroke-miterlimit="10"/>
<path d="M538.313 848.168L549.152 866.943H527.467L538.313 848.168Z" stroke="#D6EAE3" stroke-width="4" stroke-miterlimit="10"/>
<path d="M549.152 866.943L559.991 885.711H538.313L549.152 866.943Z" stroke="#D6EAE3" stroke-width="4" stroke-miterlimit="10"/>
<path d="M527.467 866.943L538.313 885.711H516.628L527.467 866.943Z" stroke="#D6EAE3" stroke-width="4" stroke-miterlimit="10"/>
<path d="M473.265 810.618L484.104 829.393H462.426L473.265 810.618Z" stroke="#D6EAE3" stroke-width="4" stroke-miterlimit="10"/>
<path d="M484.104 829.393L494.95 848.168H473.265L484.104 829.393Z" stroke="#D6EAE3" stroke-width="4" stroke-miterlimit="10"/>
<path d="M462.426 829.393L473.265 848.168H451.586L462.426 829.393Z" stroke="#D6EAE3" stroke-width="4" stroke-miterlimit="10"/>
<path d="M494.95 848.168L505.789 866.943H484.104L494.95 848.168Z" stroke="#D6EAE3" stroke-width="4" stroke-miterlimit="10"/>
<path d="M505.789 866.943L516.628 885.711H494.95L505.789 866.943Z" stroke="#D6EAE3" stroke-width="4" stroke-miterlimit="10"/>
<path d="M484.104 866.943L494.95 885.711H473.265L484.104 866.943Z" stroke="#D6EAE3" stroke-width="4" stroke-miterlimit="10"/>
<path d="M451.587 848.168L462.426 866.943H440.741L451.587 848.168Z" stroke="#D6EAE3" stroke-width="4" stroke-miterlimit="10"/>
<path d="M462.426 866.943L473.265 885.711H451.586L462.426 866.943Z" stroke="#D6EAE3" stroke-width="4" stroke-miterlimit="10"/>
<path d="M440.741 866.943L451.586 885.711H429.902L440.741 866.943Z" stroke="#D6EAE3" stroke-width="4" stroke-miterlimit="10"/>
<path d="M517.031 735.419L603.916 886.147H429.426L517.031 735.419Z" stroke="#D6EAE3" stroke-width="10" stroke-miterlimit="10"/>
<path d="M516.214 880.876L477.375 813.5H555.375L516.214 880.876Z" stroke="#D6EAE3" stroke-width="10" stroke-miterlimit="10"/>
<path d="M340.011 735.532L350.85 754.3H329.172L340.011 735.532Z" stroke="#D6EAE3" stroke-width="4" stroke-miterlimit="10"/>
<path d="M350.85 754.3L361.696 773.075H340.011L350.85 754.3Z" stroke="#D6EAE3" stroke-width="4" stroke-miterlimit="10"/>
<path d="M329.172 754.3L340.011 773.075H318.326L329.172 754.3Z" stroke="#D6EAE3" stroke-width="4" stroke-miterlimit="10"/>
<path d="M361.696 773.075L372.535 791.85H350.85L361.696 773.075Z" stroke="#D6EAE3" stroke-width="4" stroke-miterlimit="10"/>
<path d="M372.535 791.85L383.375 810.618H361.696L372.535 791.85Z" stroke="#D6EAE3" stroke-width="4" stroke-miterlimit="10"/>
<path d="M350.85 791.85L361.696 810.618H340.011L350.85 791.85Z" stroke="#D6EAE3" stroke-width="4" stroke-miterlimit="10"/>
<path d="M318.327 773.075L329.172 791.85H307.487L318.327 773.075Z" stroke="#D6EAE3" stroke-width="4" stroke-miterlimit="10"/>
<path d="M329.172 791.85L340.011 810.618H318.326L329.172 791.85Z" stroke="#D6EAE3" stroke-width="4" stroke-miterlimit="10"/>
<path d="M307.487 791.85L318.326 810.618H296.648L307.487 791.85Z" stroke="#D6EAE3" stroke-width="4" stroke-miterlimit="10"/>
<path d="M383.374 810.618L394.214 829.393H372.535L383.374 810.618Z" stroke="#D6EAE3" stroke-width="4" stroke-miterlimit="10"/>
<path d="M394.214 829.393L405.059 848.168H383.374L394.214 829.393Z" stroke="#D6EAE3" stroke-width="4" stroke-miterlimit="10"/>
<path d="M372.535 829.393L383.374 848.168H361.696L372.535 829.393Z" stroke="#D6EAE3" stroke-width="4" stroke-miterlimit="10"/>
<path d="M405.059 848.168L415.899 866.943H394.214L405.059 848.168Z" stroke="#D6EAE3" stroke-width="4" stroke-miterlimit="10"/>
<path d="M415.899 866.943L426.738 885.711H405.059L415.899 866.943Z" stroke="#D6EAE3" stroke-width="4" stroke-miterlimit="10"/>
<path d="M394.214 866.943L405.059 885.711H383.374L394.214 866.943Z" stroke="#D6EAE3" stroke-width="4" stroke-miterlimit="10"/>
<path d="M361.696 848.168L372.535 866.943H350.85L361.696 848.168Z" stroke="#D6EAE3" stroke-width="4" stroke-miterlimit="10"/>
<path d="M372.535 866.943L383.375 885.711H361.696L372.535 866.943Z" stroke="#D6EAE3" stroke-width="4" stroke-miterlimit="10"/>
<path d="M350.85 866.943L361.696 885.711H340.011L350.85 866.943Z" stroke="#D6EAE3" stroke-width="4" stroke-miterlimit="10"/>
<path d="M296.648 810.618L307.487 829.393H285.809L296.648 810.618Z" stroke="#D6EAE3" stroke-width="4" stroke-miterlimit="10"/>
<path d="M307.487 829.393L318.326 848.168H296.648L307.487 829.393Z" stroke="#D6EAE3" stroke-width="4" stroke-miterlimit="10"/>
<path d="M285.809 829.393L296.648 848.168H274.963L285.809 829.393Z" stroke="#D6EAE3" stroke-width="4" stroke-miterlimit="10"/>
<path d="M318.327 848.168L329.172 866.943H307.487L318.327 848.168Z" stroke="#D6EAE3" stroke-width="4" stroke-miterlimit="10"/>
<path d="M329.172 866.943L340.011 885.711H318.326L329.172 866.943Z" stroke="#D6EAE3" stroke-width="4" stroke-miterlimit="10"/>
<path d="M307.487 866.943L318.326 885.711H296.648L307.487 866.943Z" stroke="#D6EAE3" stroke-width="4" stroke-miterlimit="10"/>
<path d="M274.963 848.168L285.809 866.943H264.124L274.963 848.168Z" stroke="#D6EAE3" stroke-width="4" stroke-miterlimit="10"/>
<path d="M285.809 866.943L296.648 885.711H274.963L285.809 866.943Z" stroke="#D6EAE3" stroke-width="4" stroke-miterlimit="10"/>
<path d="M264.124 866.943L274.963 885.711H253.285L264.124 866.943Z" stroke="#D6EAE3" stroke-width="4" stroke-miterlimit="10"/>
<path d="M340.414 735.419L427.299 886.147H252.809L340.414 735.419Z" stroke="#D6EAE3" stroke-width="10" stroke-miterlimit="10"/>
<path d="M339.597 880.876L300.759 813.5H378.759L339.597 880.876Z" stroke="#D6EAE3" stroke-width="10" stroke-miterlimit="10"/>
<path d="M428.561 583.292L439.406 602.067H417.722L428.561 583.292Z" stroke="#D6EAE3" stroke-width="4" stroke-miterlimit="10"/>
<path d="M439.406 602.067L450.246 620.842H428.561L439.406 602.067Z" stroke="#D6EAE3" stroke-width="4" stroke-miterlimit="10"/>
<path d="M417.722 602.067L428.561 620.842H406.882L417.722 602.067Z" stroke="#D6EAE3" stroke-width="4" stroke-miterlimit="10"/>
<path d="M450.246 620.842L461.085 639.617H439.407L450.246 620.842Z" stroke="#D6EAE3" stroke-width="4" stroke-miterlimit="10"/>
<path d="M461.085 639.617L471.931 658.385H450.246L461.085 639.617Z" stroke="#D6EAE3" stroke-width="4" stroke-miterlimit="10"/>
<path d="M439.406 639.617L450.246 658.385H428.561L439.406 639.617Z" stroke="#D6EAE3" stroke-width="4" stroke-miterlimit="10"/>
<path d="M406.883 620.842L417.722 639.617H396.043L406.883 620.842Z" stroke="#D6EAE3" stroke-width="4" stroke-miterlimit="10"/>
<path d="M417.722 639.617L428.561 658.385H406.882L417.722 639.617Z" stroke="#D6EAE3" stroke-width="4" stroke-miterlimit="10"/>
<path d="M396.043 639.617L406.882 658.385H385.198L396.043 639.617Z" stroke="#D6EAE3" stroke-width="4" stroke-miterlimit="10"/>
<path d="M471.931 658.385L482.77 677.16H461.085L471.931 658.385Z" stroke="#D6EAE3" stroke-width="4" stroke-miterlimit="10"/>
<path d="M482.77 677.16L493.609 695.935H471.93L482.77 677.16Z" stroke="#D6EAE3" stroke-width="4" stroke-miterlimit="10"/>
<path d="M461.085 677.16L471.93 695.935H450.246L461.085 677.16Z" stroke="#D6EAE3" stroke-width="4" stroke-miterlimit="10"/>
<path d="M493.609 695.935L504.448 714.709H482.77L493.609 695.935Z" stroke="#D6EAE3" stroke-width="4" stroke-miterlimit="10"/>
<path d="M504.448 714.709L515.294 733.478H493.609L504.448 714.709Z" stroke="#D6EAE3" stroke-width="4" stroke-miterlimit="10"/>
<path d="M482.77 714.709L493.609 733.478H471.93L482.77 714.709Z" stroke="#D6EAE3" stroke-width="4" stroke-miterlimit="10"/>
<path d="M450.246 695.935L461.085 714.709H439.407L450.246 695.935Z" stroke="#D6EAE3" stroke-width="4" stroke-miterlimit="10"/>
<path d="M461.085 714.709L471.931 733.478H450.246L461.085 714.709Z" stroke="#D6EAE3" stroke-width="4" stroke-miterlimit="10"/>
<path d="M439.406 714.709L450.246 733.478H428.561L439.406 714.709Z" stroke="#D6EAE3" stroke-width="4" stroke-miterlimit="10"/>
<path d="M385.198 658.385L396.043 677.16H374.358L385.198 658.385Z" stroke="#D6EAE3" stroke-width="4" stroke-miterlimit="10"/>
<path d="M396.043 677.16L406.882 695.935H385.198L396.043 677.16Z" stroke="#D6EAE3" stroke-width="4" stroke-miterlimit="10"/>
<path d="M374.358 677.16L385.198 695.935H363.519L374.358 677.16Z" stroke="#D6EAE3" stroke-width="4" stroke-miterlimit="10"/>
<path d="M406.882 695.935L417.722 714.709H396.043L406.882 695.935Z" stroke="#D6EAE3" stroke-width="4" stroke-miterlimit="10"/>
<path d="M417.722 714.709L428.561 733.478H406.882L417.722 714.709Z" stroke="#D6EAE3" stroke-width="4" stroke-miterlimit="10"/>
<path d="M396.043 714.709L406.882 733.478H385.197L396.043 714.709Z" stroke="#D6EAE3" stroke-width="4" stroke-miterlimit="10"/>
<path d="M363.519 695.935L374.358 714.709H352.68L363.519 695.935Z" stroke="#D6EAE3" stroke-width="4" stroke-miterlimit="10"/>
<path d="M374.358 714.709L385.198 733.478H363.519L374.358 714.709Z" stroke="#D6EAE3" stroke-width="4" stroke-miterlimit="10"/>
<path d="M352.68 714.709L363.519 733.478H341.834L352.68 714.709Z" stroke="#D6EAE3" stroke-width="4" stroke-miterlimit="10"/>
<path d="M428.97 583.187L515.849 733.914H341.359L428.97 583.187Z" stroke="#D6EAE3" stroke-width="10" stroke-miterlimit="10"/>
<path d="M428.153 728.643L389.315 661.267H467.315L428.153 728.643Z" stroke="#D6EAE3" stroke-width="10" stroke-miterlimit="10"/>
<path d="M336.18 1045L347.02 1063.78H325.335L336.18 1045Z" stroke="#D6EAE3" stroke-width="4" stroke-miterlimit="10"/>
<path d="M347.02 1063.78L357.859 1082.55H336.18L347.02 1063.78Z" stroke="#D6EAE3" stroke-width="4" stroke-miterlimit="10"/>
<path d="M325.335 1063.78L336.18 1082.55H314.495L325.335 1063.78Z" stroke="#D6EAE3" stroke-width="4" stroke-miterlimit="10"/>
<path d="M357.859 1082.55L368.698 1101.33H347.02L357.859 1082.55Z" stroke="#D6EAE3" stroke-width="4" stroke-miterlimit="10"/>
<path d="M368.698 1101.33L379.544 1120.1H357.859L368.698 1101.33Z" stroke="#D6EAE3" stroke-width="4" stroke-miterlimit="10"/>
<path d="M347.02 1101.33L357.859 1120.1H336.18L347.02 1101.33Z" stroke="#D6EAE3" stroke-width="4" stroke-miterlimit="10"/>
<path d="M314.496 1082.55L325.335 1101.33H303.656L314.496 1082.55Z" stroke="#D6EAE3" stroke-width="4" stroke-miterlimit="10"/>
<path d="M325.335 1101.33L336.18 1120.1H314.496L325.335 1101.33Z" stroke="#D6EAE3" stroke-width="4" stroke-miterlimit="10"/>
<path d="M303.656 1101.33L314.496 1120.1H292.817L303.656 1101.33Z" stroke="#D6EAE3" stroke-width="4" stroke-miterlimit="10"/>
<path d="M379.544 1120.1L390.383 1138.87H368.698L379.544 1120.1Z" stroke="#D6EAE3" stroke-width="4" stroke-miterlimit="10"/>
<path d="M390.383 1138.87L401.222 1157.65H379.544L390.383 1138.87Z" stroke="#D6EAE3" stroke-width="4" stroke-miterlimit="10"/>
<path d="M368.698 1138.87L379.543 1157.65H357.859L368.698 1138.87Z" stroke="#D6EAE3" stroke-width="4" stroke-miterlimit="10"/>
<path d="M401.222 1157.65L412.061 1176.42H390.383L401.222 1157.65Z" stroke="#D6EAE3" stroke-width="4" stroke-miterlimit="10"/>
<path d="M412.061 1176.42L422.907 1195.19H401.222L412.061 1176.42Z" stroke="#D6EAE3" stroke-width="4" stroke-miterlimit="10"/>
<path d="M390.383 1176.42L401.222 1195.19H379.544L390.383 1176.42Z" stroke="#D6EAE3" stroke-width="4" stroke-miterlimit="10"/>
<path d="M357.859 1157.65L368.698 1176.42H347.02L357.859 1157.65Z" stroke="#D6EAE3" stroke-width="4" stroke-miterlimit="10"/>
<path d="M368.698 1176.42L379.544 1195.19H357.859L368.698 1176.42Z" stroke="#D6EAE3" stroke-width="4" stroke-miterlimit="10"/>
<path d="M347.02 1176.42L357.859 1195.19H336.18L347.02 1176.42Z" stroke="#D6EAE3" stroke-width="4" stroke-miterlimit="10"/>
<path d="M292.817 1120.1L303.656 1138.87H281.972L292.817 1120.1Z" stroke="#D6EAE3" stroke-width="4" stroke-miterlimit="10"/>
<path d="M303.656 1138.87L314.495 1157.65H292.817L303.656 1138.87Z" stroke="#D6EAE3" stroke-width="4" stroke-miterlimit="10"/>
<path d="M281.971 1138.87L292.817 1157.65H271.132L281.971 1138.87Z" stroke="#D6EAE3" stroke-width="4" stroke-miterlimit="10"/>
<path d="M314.495 1157.65L325.335 1176.42H303.656L314.495 1157.65Z" stroke="#D6EAE3" stroke-width="4" stroke-miterlimit="10"/>
<path d="M325.335 1176.42L336.18 1195.19H314.495L325.335 1176.42Z" stroke="#D6EAE3" stroke-width="4" stroke-miterlimit="10"/>
<path d="M303.656 1176.42L314.495 1195.19H292.817L303.656 1176.42Z" stroke="#D6EAE3" stroke-width="4" stroke-miterlimit="10"/>
<path d="M271.132 1157.65L281.971 1176.42H260.293L271.132 1157.65Z" stroke="#D6EAE3" stroke-width="4" stroke-miterlimit="10"/>
<path d="M281.971 1176.42L292.817 1195.19H271.132L281.971 1176.42Z" stroke="#D6EAE3" stroke-width="4" stroke-miterlimit="10"/>
<path d="M260.293 1176.42L271.132 1195.19H249.454L260.293 1176.42Z" stroke="#D6EAE3" stroke-width="4" stroke-miterlimit="10"/>
<path d="M336.583 1044.9L423.462 1195.63H248.978L336.583 1044.9Z" stroke="#D6EAE3" stroke-width="10" stroke-miterlimit="10"/>
<path d="M335.766 1189.36L296.928 1121.98H374.928L335.766 1189.36Z" stroke="#D6EAE3" stroke-width="10" stroke-miterlimit="10"/>
<path d="M159.564 1045L170.403 1063.78H148.718L159.564 1045Z" stroke="#D6EAE3" stroke-width="4" stroke-miterlimit="10"/>
<path d="M170.403 1063.78L181.242 1082.55H159.564L170.403 1063.78Z" stroke="#D6EAE3" stroke-width="4" stroke-miterlimit="10"/>
<path d="M148.718 1063.78L159.564 1082.55H137.879L148.718 1063.78Z" stroke="#D6EAE3" stroke-width="4" stroke-miterlimit="10"/>
<path d="M181.242 1082.55L192.081 1101.33H170.403L181.242 1082.55Z" stroke="#D6EAE3" stroke-width="4" stroke-miterlimit="10"/>
<path d="M192.081 1101.33L202.927 1120.1H181.242L192.081 1101.33Z" stroke="#D6EAE3" stroke-width="4" stroke-miterlimit="10"/>
<path d="M170.403 1101.33L181.242 1120.1H159.564L170.403 1101.33Z" stroke="#D6EAE3" stroke-width="4" stroke-miterlimit="10"/>
<path d="M137.879 1082.55L148.718 1101.33H127.04L137.879 1082.55Z" stroke="#D6EAE3" stroke-width="4" stroke-miterlimit="10"/>
<path d="M148.718 1101.33L159.564 1120.1H137.879L148.718 1101.33Z" stroke="#D6EAE3" stroke-width="4" stroke-miterlimit="10"/>
<path d="M127.04 1101.33L137.879 1120.1H116.194L127.04 1101.33Z" stroke="#D6EAE3" stroke-width="4" stroke-miterlimit="10"/>
<path d="M202.927 1120.1L213.766 1138.87H192.081L202.927 1120.1Z" stroke="#D6EAE3" stroke-width="4" stroke-miterlimit="10"/>
<path d="M213.766 1138.87L224.605 1157.65H202.927L213.766 1138.87Z" stroke="#D6EAE3" stroke-width="4" stroke-miterlimit="10"/>
<path d="M192.081 1138.87L202.927 1157.65H181.242L192.081 1138.87Z" stroke="#D6EAE3" stroke-width="4" stroke-miterlimit="10"/>
<path d="M224.605 1157.65L235.444 1176.42H213.766L224.605 1157.65Z" stroke="#D6EAE3" stroke-width="4" stroke-miterlimit="10"/>
<path d="M235.444 1176.42L246.29 1195.19H224.605L235.444 1176.42Z" stroke="#D6EAE3" stroke-width="4" stroke-miterlimit="10"/>
<path d="M213.766 1176.42L224.605 1195.19H202.927L213.766 1176.42Z" stroke="#D6EAE3" stroke-width="4" stroke-miterlimit="10"/>
<path d="M181.242 1157.65L192.081 1176.42H170.403L181.242 1157.65Z" stroke="#D6EAE3" stroke-width="4" stroke-miterlimit="10"/>
<path d="M192.081 1176.42L202.927 1195.19H181.242L192.081 1176.42Z" stroke="#D6EAE3" stroke-width="4" stroke-miterlimit="10"/>
<path d="M170.403 1176.42L181.242 1195.19H159.564L170.403 1176.42Z" stroke="#D6EAE3" stroke-width="4" stroke-miterlimit="10"/>
<path d="M116.194 1120.1L127.04 1138.87H105.355L116.194 1120.1Z" stroke="#D6EAE3" stroke-width="4" stroke-miterlimit="10"/>
<path d="M127.04 1138.87L137.879 1157.65H116.194L127.04 1138.87Z" stroke="#D6EAE3" stroke-width="4" stroke-miterlimit="10"/>
<path d="M105.355 1138.87L116.194 1157.65H94.5156L105.355 1138.87Z" stroke="#D6EAE3" stroke-width="4" stroke-miterlimit="10"/>
<path d="M137.879 1157.65L148.718 1176.42H127.04L137.879 1157.65Z" stroke="#D6EAE3" stroke-width="4" stroke-miterlimit="10"/>
<path d="M148.718 1176.42L159.564 1195.19H137.879L148.718 1176.42Z" stroke="#D6EAE3" stroke-width="4" stroke-miterlimit="10"/>
<path d="M127.04 1176.42L137.879 1195.19H116.194L127.04 1176.42Z" stroke="#D6EAE3" stroke-width="4" stroke-miterlimit="10"/>
<path d="M94.5156 1157.65L105.355 1176.42H83.6764L94.5156 1157.65Z" stroke="#D6EAE3" stroke-width="4" stroke-miterlimit="10"/>
<path d="M105.355 1176.42L116.194 1195.19H94.5155L105.355 1176.42Z" stroke="#D6EAE3" stroke-width="4" stroke-miterlimit="10"/>
<path d="M83.6763 1176.42L94.5155 1195.19H72.8306L83.6763 1176.42Z" stroke="#D6EAE3" stroke-width="4" stroke-miterlimit="10"/>
<path d="M159.967 1044.9L246.845 1195.63H72.3617L159.967 1044.9Z" stroke="#D6EAE3" stroke-width="10" stroke-miterlimit="10"/>
<path d="M159.149 1190.36L120.311 1122.98H198.311L159.149 1190.36Z" stroke="#D6EAE3" stroke-width="10" stroke-miterlimit="10"/>
<path d="M248.113 892.771L258.952 911.545H237.274L248.113 892.771Z" stroke="#D6EAE3" stroke-width="4" stroke-miterlimit="10"/>
<path d="M258.952 911.545L269.798 930.32H248.113L258.952 911.545Z" stroke="#D6EAE3" stroke-width="4" stroke-miterlimit="10"/>
<path d="M237.274 911.545L248.113 930.32H226.428L237.274 911.545Z" stroke="#D6EAE3" stroke-width="4" stroke-miterlimit="10"/>
<path d="M269.798 930.32L280.637 949.095H258.952L269.798 930.32Z" stroke="#D6EAE3" stroke-width="4" stroke-miterlimit="10"/>
<path d="M280.637 949.095L291.476 967.863H269.798L280.637 949.095Z" stroke="#D6EAE3" stroke-width="4" stroke-miterlimit="10"/>
<path d="M258.952 949.095L269.798 967.863H248.113L258.952 949.095Z" stroke="#D6EAE3" stroke-width="4" stroke-miterlimit="10"/>
<path d="M226.428 930.32L237.274 949.095H215.589L226.428 930.32Z" stroke="#D6EAE3" stroke-width="4" stroke-miterlimit="10"/>
<path d="M237.274 949.095L248.113 967.863H226.428L237.274 949.095Z" stroke="#D6EAE3" stroke-width="4" stroke-miterlimit="10"/>
<path d="M215.589 949.095L226.428 967.863H204.75L215.589 949.095Z" stroke="#D6EAE3" stroke-width="4" stroke-miterlimit="10"/>
<path d="M291.476 967.863L302.315 986.638H280.637L291.476 967.863Z" stroke="#D6EAE3" stroke-width="4" stroke-miterlimit="10"/>
<path d="M302.315 986.638L313.161 1005.41H291.476L302.315 986.638Z" stroke="#D6EAE3" stroke-width="4" stroke-miterlimit="10"/>
<path d="M280.637 986.638L291.476 1005.41H269.798L280.637 986.638Z" stroke="#D6EAE3" stroke-width="4" stroke-miterlimit="10"/>
<path d="M313.161 1005.41L324 1024.19H302.316L313.161 1005.41Z" stroke="#D6EAE3" stroke-width="4" stroke-miterlimit="10"/>
<path d="M324 1024.19L334.839 1042.96H313.161L324 1024.19Z" stroke="#D6EAE3" stroke-width="4" stroke-miterlimit="10"/>
<path d="M302.315 1024.19L313.161 1042.96H291.476L302.315 1024.19Z" stroke="#D6EAE3" stroke-width="4" stroke-miterlimit="10"/>
<path d="M269.798 1005.41L280.637 1024.19H258.952L269.798 1005.41Z" stroke="#D6EAE3" stroke-width="4" stroke-miterlimit="10"/>
<path d="M280.637 1024.19L291.476 1042.96H269.798L280.637 1024.19Z" stroke="#D6EAE3" stroke-width="4" stroke-miterlimit="10"/>
<path d="M258.952 1024.19L269.798 1042.96H248.113L258.952 1024.19Z" stroke="#D6EAE3" stroke-width="4" stroke-miterlimit="10"/>
<path d="M204.75 967.863L215.589 986.638H193.911L204.75 967.863Z" stroke="#D6EAE3" stroke-width="4" stroke-miterlimit="10"/>
<path d="M215.589 986.638L226.428 1005.41H204.75L215.589 986.638Z" stroke="#D6EAE3" stroke-width="4" stroke-miterlimit="10"/>
<path d="M193.911 986.638L204.75 1005.41H183.065L193.911 986.638Z" stroke="#D6EAE3" stroke-width="4" stroke-miterlimit="10"/>
<path d="M226.428 1005.41L237.274 1024.19H215.589L226.428 1005.41Z" stroke="#D6EAE3" stroke-width="4" stroke-miterlimit="10"/>
<path d="M237.274 1024.19L248.113 1042.96H226.428L237.274 1024.19Z" stroke="#D6EAE3" stroke-width="4" stroke-miterlimit="10"/>
<path d="M215.589 1024.19L226.428 1042.96H204.75L215.589 1024.19Z" stroke="#D6EAE3" stroke-width="4" stroke-miterlimit="10"/>
<path d="M183.065 1005.41L193.911 1024.19H172.226L183.065 1005.41Z" stroke="#D6EAE3" stroke-width="4" stroke-miterlimit="10"/>
<path d="M193.911 1024.19L204.75 1042.96H183.065L193.911 1024.19Z" stroke="#D6EAE3" stroke-width="4" stroke-miterlimit="10"/>
<path d="M172.226 1024.19L183.065 1042.96H161.387L172.226 1024.19Z" stroke="#D6EAE3" stroke-width="4" stroke-miterlimit="10"/>
<path d="M248.516 892.665L335.401 1043.39H160.911L248.516 892.665Z" stroke="#D6EAE3" stroke-width="10" stroke-miterlimit="10"/>
<path d="M247.699 1038.12L208.861 970.739H286.861L247.699 1038.12Z" stroke="#99D2EB" stroke-width="10" stroke-miterlimit="10"/>
<path d="M607.648 892.744L618.487 911.519H596.802L607.648 892.744Z" stroke="#D6EAE3" stroke-width="4" stroke-miterlimit="10"/>
<path d="M618.487 911.519L629.326 930.294H607.648L618.487 911.519Z" stroke="#D6EAE3" stroke-width="4" stroke-miterlimit="10"/>
<path d="M596.802 911.519L607.648 930.294H585.963L596.802 911.519Z" stroke="#D6EAE3" stroke-width="4" stroke-miterlimit="10"/>
<path d="M629.326 930.294L640.165 949.069H618.487L629.326 930.294Z" stroke="#D6EAE3" stroke-width="4" stroke-miterlimit="10"/>
<path d="M640.165 949.069L651.011 967.837H629.326L640.165 949.069Z" stroke="#D6EAE3" stroke-width="4" stroke-miterlimit="10"/>
<path d="M618.487 949.069L629.326 967.837H607.648L618.487 949.069Z" stroke="#D6EAE3" stroke-width="4" stroke-miterlimit="10"/>
<path d="M585.963 930.294L596.802 949.069H575.123L585.963 930.294Z" stroke="#D6EAE3" stroke-width="4" stroke-miterlimit="10"/>
<path d="M596.802 949.069L607.647 967.837H585.963L596.802 949.069Z" stroke="#D6EAE3" stroke-width="4" stroke-miterlimit="10"/>
<path d="M575.123 949.069L585.963 967.837H564.284L575.123 949.069Z" stroke="#D6EAE3" stroke-width="4" stroke-miterlimit="10"/>
<path d="M651.011 967.837L661.85 986.612H640.165L651.011 967.837Z" stroke="#D6EAE3" stroke-width="4" stroke-miterlimit="10"/>
<path d="M661.85 986.612L672.689 1005.39H651.011L661.85 986.612Z" stroke="#D6EAE3" stroke-width="4" stroke-miterlimit="10"/>
<path d="M640.165 986.612L651.011 1005.39H629.326L640.165 986.612Z" stroke="#D6EAE3" stroke-width="4" stroke-miterlimit="10"/>
<path d="M672.689 1005.39L683.528 1024.16H661.85L672.689 1005.39Z" stroke="#D6EAE3" stroke-width="4" stroke-miterlimit="10"/>
<path d="M683.528 1024.16L694.374 1042.93H672.689L683.528 1024.16Z" stroke="#D6EAE3" stroke-width="4" stroke-miterlimit="10"/>
<path d="M661.85 1024.16L672.689 1042.93H651.011L661.85 1024.16Z" stroke="#D6EAE3" stroke-width="4" stroke-miterlimit="10"/>
<path d="M629.326 1005.39L640.165 1024.16H618.487L629.326 1005.39Z" stroke="#D6EAE3" stroke-width="4" stroke-miterlimit="10"/>
<path d="M640.165 1024.16L651.011 1042.93H629.326L640.165 1024.16Z" stroke="#D6EAE3" stroke-width="4" stroke-miterlimit="10"/>
<path d="M618.487 1024.16L629.326 1042.93H607.648L618.487 1024.16Z" stroke="#D6EAE3" stroke-width="4" stroke-miterlimit="10"/>
<path d="M564.285 967.837L575.124 986.612H553.439L564.285 967.837Z" stroke="#D6EAE3" stroke-width="4" stroke-miterlimit="10"/>
<path d="M575.124 986.612L585.963 1005.39H564.285L575.124 986.612Z" stroke="#D6EAE3" stroke-width="4" stroke-miterlimit="10"/>
<path d="M553.439 986.612L564.285 1005.39H542.6L553.439 986.612Z" stroke="#D6EAE3" stroke-width="4" stroke-miterlimit="10"/>
<path d="M585.963 1005.39L596.802 1024.16H575.124L585.963 1005.39Z" stroke="#D6EAE3" stroke-width="4" stroke-miterlimit="10"/>
<path d="M596.802 1024.16L607.648 1042.93H585.963L596.802 1024.16Z" stroke="#D6EAE3" stroke-width="4" stroke-miterlimit="10"/>
<path d="M575.124 1024.16L585.963 1042.93H564.285L575.124 1024.16Z" stroke="#D6EAE3" stroke-width="4" stroke-miterlimit="10"/>
<path d="M542.6 1005.39L553.439 1024.16H531.761L542.6 1005.39Z" stroke="#D6EAE3" stroke-width="4" stroke-miterlimit="10"/>
<path d="M553.439 1024.16L564.285 1042.93H542.6L553.439 1024.16Z" stroke="#D6EAE3" stroke-width="4" stroke-miterlimit="10"/>
<path d="M531.76 1024.16L542.6 1042.93H520.921L531.76 1024.16Z" stroke="#D6EAE3" stroke-width="4" stroke-miterlimit="10"/>
<path d="M608.051 892.639L694.929 1043.37H520.446L608.051 892.639Z" stroke="#D6EAE3" stroke-width="10" stroke-miterlimit="10"/>
<path d="M607.233 1038.09L568.395 970.713H646.395L607.233 1038.09Z" stroke="#D6EAE3" stroke-width="10" stroke-miterlimit="10"/>
<path d="M519.303 1044.67L530.142 1063.44H508.464L519.303 1044.67Z" stroke="#D6EAE3" stroke-width="4" stroke-miterlimit="10"/>
<path d="M530.142 1063.44L540.988 1082.21H519.303L530.142 1063.44Z" stroke="#D6EAE3" stroke-width="4" stroke-miterlimit="10"/>
<path d="M508.464 1063.44L519.303 1082.21H497.625L508.464 1063.44Z" stroke="#D6EAE3" stroke-width="4" stroke-miterlimit="10"/>
<path d="M540.988 1082.21L551.827 1100.98H530.142L540.988 1082.21Z" stroke="#D6EAE3" stroke-width="4" stroke-miterlimit="10"/>
<path d="M551.827 1100.98L562.666 1119.76H540.988L551.827 1100.98Z" stroke="#D6EAE3" stroke-width="4" stroke-miterlimit="10"/>
<path d="M530.142 1100.98L540.988 1119.76H519.303L530.142 1100.98Z" stroke="#D6EAE3" stroke-width="4" stroke-miterlimit="10"/>
<path d="M497.625 1082.21L508.464 1100.98H486.779L497.625 1082.21Z" stroke="#D6EAE3" stroke-width="4" stroke-miterlimit="10"/>
<path d="M508.464 1100.98L519.303 1119.76H497.625L508.464 1100.98Z" stroke="#D6EAE3" stroke-width="4" stroke-miterlimit="10"/>
<path d="M486.779 1100.98L497.625 1119.76H475.94L486.779 1100.98Z" stroke="#D6EAE3" stroke-width="4" stroke-miterlimit="10"/>
<path d="M562.666 1119.76L573.505 1138.53H551.827L562.666 1119.76Z" stroke="#D6EAE3" stroke-width="4" stroke-miterlimit="10"/>
<path d="M573.505 1138.53L584.351 1157.3H562.666L573.505 1138.53Z" stroke="#D6EAE3" stroke-width="4" stroke-miterlimit="10"/>
<path d="M551.827 1138.53L562.666 1157.3H540.988L551.827 1138.53Z" stroke="#D6EAE3" stroke-width="4" stroke-miterlimit="10"/>
<path d="M584.351 1157.3L595.19 1176.08H573.505L584.351 1157.3Z" stroke="#D6EAE3" stroke-width="4" stroke-miterlimit="10"/>
<path d="M595.19 1176.08L606.029 1194.85H584.351L595.19 1176.08Z" stroke="#D6EAE3" stroke-width="4" stroke-miterlimit="10"/>
<path d="M573.505 1176.08L584.351 1194.85H562.666L573.505 1176.08Z" stroke="#D6EAE3" stroke-width="4" stroke-miterlimit="10"/>
<path d="M540.988 1157.3L551.827 1176.08H530.142L540.988 1157.3Z" stroke="#D6EAE3" stroke-width="4" stroke-miterlimit="10"/>
<path d="M551.827 1176.08L562.666 1194.85H540.988L551.827 1176.08Z" stroke="#D6EAE3" stroke-width="4" stroke-miterlimit="10"/>
<path d="M530.142 1176.08L540.988 1194.85H519.303L530.142 1176.08Z" stroke="#D6EAE3" stroke-width="4" stroke-miterlimit="10"/>
<path d="M475.94 1119.76L486.779 1138.53H465.101L475.94 1119.76Z" stroke="#D6EAE3" stroke-width="4" stroke-miterlimit="10"/>
<path d="M486.779 1138.53L497.625 1157.3H475.94L486.779 1138.53Z" stroke="#D6EAE3" stroke-width="4" stroke-miterlimit="10"/>
<path d="M465.101 1138.53L475.94 1157.3H454.261L465.101 1138.53Z" stroke="#D6EAE3" stroke-width="4" stroke-miterlimit="10"/>
<path d="M497.625 1157.3L508.464 1176.08H486.779L497.625 1157.3Z" stroke="#D6EAE3" stroke-width="4" stroke-miterlimit="10"/>
<path d="M508.464 1176.08L519.303 1194.85H497.625L508.464 1176.08Z" stroke="#D6EAE3" stroke-width="4" stroke-miterlimit="10"/>
<path d="M486.779 1176.08L497.625 1194.85H475.94L486.779 1176.08Z" stroke="#D6EAE3" stroke-width="4" stroke-miterlimit="10"/>
<path d="M454.261 1157.3L465.101 1176.08H443.416L454.261 1157.3Z" stroke="#D6EAE3" stroke-width="4" stroke-miterlimit="10"/>
<path d="M465.101 1176.08L475.94 1194.85H454.261L465.101 1176.08Z" stroke="#D6EAE3" stroke-width="4" stroke-miterlimit="10"/>
<path d="M443.416 1176.08L454.261 1194.85H432.576L443.416 1176.08Z" stroke="#D6EAE3" stroke-width="4" stroke-miterlimit="10"/>
<path d="M519.706 1044.55L606.591 1195.28H432.101L519.706 1044.55Z" stroke="#D6EAE3" stroke-width="10" stroke-miterlimit="10"/>
<path d="M518.889 1190.01L480.051 1122.64H558.051L518.889 1190.01Z" stroke="#D6EAE3" stroke-width="10" stroke-miterlimit="10"/>
</g>
</g>
</g>
<defs>
<clipPath id="clip0_412_9373">
<rect width="1976" height="1200" fill="white"/>
</clipPath>
<clipPath id="clip1_412_9373">
<rect width="1074" height="927.928" fill="white" transform="matrix(-1 0 0 1 2066 -162)"/>
</clipPath>
<clipPath id="clip2_412_9373">
<rect width="1074" height="927.928" fill="white" transform="matrix(-1 0 0 1 966 271)"/>
</clipPath>
</defs>
</svg>
