<svg width="1976" height="1200" viewBox="0 0 1976 1200" fill="none" xmlns="http://www.w3.org/2000/svg">
<g clip-path="url(#clip0_698_11464)">
<rect width="1976" height="1200" fill="white"/>
<mask id="mask0_698_11464" style="mask-type:alpha" maskUnits="userSpaceOnUse" x="0" y="-2" width="1976" height="1200">
<path d="M0 -2H1976V1198H0V-2Z" fill="#D9D9D9"/>
</mask>
<g mask="url(#mask0_698_11464)">
<path d="M1226.71 -81.0332V145.078" stroke="#D6E9E2" stroke-width="5"/>
<path d="M1171.2 28.0884C1140.65 28.0884 1115.88 3.32257 1115.88 -27.229C1115.88 -57.7806 1140.65 -82.5464 1171.2 -82.5464C1201.75 -82.5464 1226.52 -57.7806 1226.52 -27.229" stroke="#D6E9E2" stroke-width="5"/>
<path d="M1171.24 28.3569C1201.79 28.3569 1226.55 53.1227 1226.55 83.6743C1226.55 114.226 1201.79 138.992 1171.24 138.992C1140.69 138.992 1115.92 114.226 1115.92 83.6743" stroke="#D6E9E2" stroke-width="5"/>
<path d="M1171.78 28.7173C1171.78 59.2376 1147.04 83.9799 1116.52 83.9799" stroke="#D6E9E2" stroke-width="5"/>
<path d="M1171.38 -81.7349V144.376" stroke="#D6E9E2" stroke-width="5"/>
<path d="M1282.05 -81.7349V144.376" stroke="#D6E9E2" stroke-width="5"/>
<path d="M1282.42 28.2919C1282.42 -2.22837 1307.17 -26.9707 1337.69 -26.9707" stroke="#D6E9E2" stroke-width="5"/>
<path d="M1115.63 83.7422H1101.25" stroke="#D6E9E2" stroke-width="5"/>
<path d="M1325.82 83.7422H1281.53" stroke="#D6E9E2" stroke-width="5"/>
<path d="M1326.52 28.4043H1281.92" stroke="#D6E9E2" stroke-width="5"/>
<path d="M1281.97 139.255C1251.42 139.255 1226.65 114.49 1226.65 83.938C1226.65 53.3864 1251.42 28.6206 1281.97 28.6206C1312.52 28.6206 1337.29 53.3864 1337.29 83.938" stroke="#D6E9E2" stroke-width="5"/>
<path d="M1282.12 28.2973C1251.6 28.2973 1226.86 3.55496 1226.86 -26.9653" stroke="#D6E9E2" stroke-width="5"/>
<path d="M1283.08 364.033V137.922" stroke="#D6E9E2" stroke-width="5"/>
<path d="M1227.34 254.283C1227.34 223.763 1252.08 199.021 1282.6 199.021" stroke="#D6E9E2" stroke-width="5"/>
<path d="M1283.1 309.934H1297.87" stroke="#D6E9E2" stroke-width="5"/>
<path d="M1283.49 199.258H1297.87" stroke="#D6E9E2" stroke-width="5"/>
<path d="M1283.49 254.596H1297.17" stroke="#D6E9E2" stroke-width="5"/>
<path d="M1228.32 142.874H1297.17" stroke="#D6E9E2" stroke-width="5"/>
<path d="M1299.49 239.221C1289.47 229.209 1283.28 215.381 1283.28 200.105" stroke="#D6E9E2" stroke-width="5"/>
<path d="M1299.73 306.59C1294.69 308.105 1289.34 308.922 1283.8 308.922" stroke="#D6E9E2" stroke-width="5"/>
<path d="M1336.53 -81.0332V145.078" stroke="#D6E9E2" stroke-width="5"/>
<path d="M1447.21 -81.0332V145.078" stroke="#D6E9E2" stroke-width="5"/>
<path d="M1391.7 28.0884C1361.14 28.0884 1336.38 3.32257 1336.38 -27.229C1336.38 -57.7806 1361.14 -82.5464 1391.7 -82.5464C1422.25 -82.5464 1447.01 -57.7806 1447.01 -27.229" stroke="#D6E9E2" stroke-width="5"/>
<path d="M1391.73 28.3569C1422.28 28.3569 1447.05 53.1227 1447.05 83.6743C1447.05 114.226 1422.28 138.992 1391.73 138.992C1361.18 138.992 1336.42 114.226 1336.42 83.6743" stroke="#D6E9E2" stroke-width="5"/>
<path d="M1392.28 28.7173C1392.28 59.2376 1367.53 83.9799 1337.01 83.9799" stroke="#D6E9E2" stroke-width="5"/>
<path d="M1391.87 -81.7349V144.376" stroke="#D6E9E2" stroke-width="5"/>
<path d="M1227.88 254.643C1197.33 254.643 1172.56 229.877 1172.56 199.326C1172.56 168.774 1197.33 144.008 1227.88 144.008C1258.43 144.008 1283.2 168.774 1283.2 199.326" stroke="#6BAEE2" stroke-width="5"/>
<path d="M1502.55 -81.7349V144.376" stroke="#D6E9E2" stroke-width="5"/>
<path d="M1502.92 28.2919C1502.92 -2.22837 1527.66 -26.9707 1558.18 -26.9707" stroke="#D6E9E2" stroke-width="5"/>
<path d="M1336.13 83.7422H1321.75" stroke="#D6E9E2" stroke-width="5"/>
<path d="M1546.32 83.7422H1502.02" stroke="#D6E9E2" stroke-width="5"/>
<path d="M1336.13 28.4043H1322.44" stroke="#D6E9E2" stroke-width="5"/>
<path d="M1547.01 28.4043H1502.41" stroke="#D6E9E2" stroke-width="5"/>
<path d="M1391.29 139.081H1322.44" stroke="#D6E9E2" stroke-width="5"/>
<path d="M1502.47 139.255C1471.92 139.255 1447.15 114.49 1447.15 83.938C1447.15 53.3864 1471.92 28.6206 1502.47 28.6206C1533.02 28.6206 1557.79 53.3864 1557.79 83.938" stroke="#D6E9E2" stroke-width="5"/>
<path d="M1502.62 28.2973C1472.1 28.2973 1447.36 3.55496 1447.36 -26.9653" stroke="#D6E9E2" stroke-width="5"/>
<path d="M1320.13 43.7788C1330.14 53.7905 1336.33 67.6185 1336.33 82.8943" stroke="#D6E9E2" stroke-width="5"/>
<path d="M1448.38 364.889V591" stroke="#D6E9E2" stroke-width="5"/>
<path d="M1392.87 474.011C1362.32 474.011 1337.55 449.245 1337.55 418.693C1337.55 388.142 1362.32 363.376 1392.87 363.376C1423.42 363.376 1448.19 388.142 1448.19 418.693" stroke="#D6E9E2" stroke-width="5"/>
<path d="M1392.91 474.279C1423.46 474.279 1448.23 499.045 1448.23 529.597C1448.23 560.148 1423.46 584.914 1392.91 584.914C1362.36 584.914 1337.59 560.148 1337.59 529.597" stroke="#D6E9E2" stroke-width="5"/>
<path d="M1393.45 474.64C1393.45 505.16 1368.71 529.902 1338.19 529.902" stroke="#D6E9E2" stroke-width="5"/>
<path d="M1393.05 364.188V590.298" stroke="#D6E9E2" stroke-width="5"/>
<path d="M1503.72 364.188V590.298" stroke="#D6E9E2" stroke-width="5"/>
<path d="M1504.09 474.214C1504.09 443.694 1528.84 418.952 1559.36 418.952" stroke="#D6E9E2" stroke-width="5"/>
<path d="M1547.49 418.988H1392.47" stroke="#D6E9E2" stroke-width="5"/>
<path d="M1337.3 529.667H1322.92" stroke="#D6E9E2" stroke-width="5"/>
<path d="M1547.49 529.667H1503.2" stroke="#D6E9E2" stroke-width="5"/>
<path d="M1548.19 474.326H1503.59" stroke="#D6E9E2" stroke-width="5"/>
<path d="M1503.64 585.178C1473.09 585.178 1448.33 560.412 1448.33 529.86C1448.33 499.309 1473.09 474.543 1503.64 474.543C1534.19 474.543 1558.96 499.309 1558.96 529.86" stroke="#D6E9E2" stroke-width="5"/>
<path d="M1503.8 474.22C1473.28 474.22 1448.53 449.477 1448.53 418.957" stroke="#D6E9E2" stroke-width="5"/>
<path d="M1321.3 489.704C1331.32 499.716 1337.51 513.544 1337.51 528.82" stroke="#D6E9E2" stroke-width="5"/>
<path d="M1503.58 364.033V137.922" stroke="#D6E9E2" stroke-width="5"/>
<path d="M1392.9 364.033V137.922" stroke="#D6E9E2" stroke-width="5"/>
<path d="M1448.41 254.912C1478.97 254.912 1503.73 279.677 1503.73 310.229C1503.73 340.781 1478.97 365.546 1448.41 365.546C1417.86 365.546 1393.1 340.781 1393.1 310.229" stroke="#D6E9E2" stroke-width="5"/>
<path d="M1448.38 254.643C1417.83 254.643 1393.06 229.877 1393.06 199.326C1393.06 168.774 1417.83 144.008 1448.38 144.008C1478.93 144.008 1503.7 168.774 1503.7 199.326" stroke="#D6E9E2" stroke-width="5"/>
<path d="M1447.83 254.283C1447.83 223.763 1472.57 199.021 1503.09 199.021" stroke="#D6E9E2" stroke-width="5"/>
<path d="M1448.24 364.735V138.624" stroke="#D6E9E2" stroke-width="5"/>
<path d="M1337.56 364.735V138.624" stroke="#D6E9E2" stroke-width="5"/>
<path d="M1337.19 254.708C1337.19 285.228 1312.45 309.971 1281.93 309.971" stroke="#D6E9E2" stroke-width="5"/>
<path d="M1503.59 309.934H1518.36" stroke="#D6E9E2" stroke-width="5"/>
<path d="M1293.79 309.934H1448.82" stroke="#D6E9E2" stroke-width="5"/>
<path d="M1503.98 199.258H1518.36" stroke="#D6E9E2" stroke-width="5"/>
<path d="M1293.79 199.258H1338.09" stroke="#D6E9E2" stroke-width="5"/>
<path d="M1503.98 254.596H1517.67" stroke="#D6E9E2" stroke-width="5"/>
<path d="M1293.1 254.596H1337.7" stroke="#D6E9E2" stroke-width="5"/>
<path d="M1448.82 142.874H1517.67" stroke="#D6E9E2" stroke-width="5"/>
<path d="M1337.64 143.745C1368.19 143.745 1392.96 168.51 1392.96 199.062C1392.96 229.614 1368.19 254.379 1337.64 254.379C1307.09 254.379 1282.32 229.614 1282.32 199.062" stroke="#D6E9E2" stroke-width="5"/>
<path d="M1337.49 254.703C1368.01 254.703 1392.75 279.445 1392.75 309.966" stroke="#D6E9E2" stroke-width="5"/>
<path d="M1519.98 239.221C1509.97 229.209 1503.78 215.381 1503.78 200.105" stroke="#D6E9E2" stroke-width="5"/>
<path d="M1520.23 306.59C1515.18 308.105 1509.84 308.922 1504.3 308.922" stroke="#D6E9E2" stroke-width="5"/>
<path d="M1557.21 -81.0332V145.078" stroke="#D6E9E2" stroke-width="5"/>
<path d="M1667.89 -81.0332V145.078" stroke="#D6E9E2" stroke-width="5"/>
<path d="M1612.96 28.7173C1612.96 59.2376 1588.22 83.9799 1557.7 83.9799" stroke="#D6E9E2" stroke-width="5"/>
<path d="M1612.55 -81.7349V144.376" stroke="#D6E9E2" stroke-width="5"/>
<path d="M1723.23 -81.7349V144.376" stroke="#D6E9E2" stroke-width="5"/>
<path d="M1723.6 28.2919C1723.6 -2.22837 1748.34 -26.9707 1778.86 -26.9707" stroke="#D6E9E2" stroke-width="5"/>
<path d="M1556.81 83.7422H1542.43" stroke="#D6E9E2" stroke-width="5"/>
<path d="M1767 83.7422H1722.7" stroke="#D6E9E2" stroke-width="5"/>
<path d="M1556.81 28.4043H1543.13" stroke="#D6E9E2" stroke-width="5"/>
<path d="M1767.69 28.4043H1723.09" stroke="#D6E9E2" stroke-width="5"/>
<path d="M1611.97 139.081H1543.13" stroke="#D6E9E2" stroke-width="5"/>
<path d="M1723.15 139.255C1692.6 139.255 1667.83 114.49 1667.83 83.938C1667.83 53.3864 1692.6 28.6206 1723.15 28.6206C1753.7 28.6206 1778.47 53.3864 1778.47 83.938" stroke="#D6E9E2" stroke-width="5"/>
<path d="M1723.3 28.2973C1692.78 28.2973 1668.04 3.55496 1668.04 -26.9653" stroke="#D6E9E2" stroke-width="5"/>
<path d="M1612.38 28.0884C1581.82 28.0884 1557.06 3.32257 1557.06 -27.229C1557.06 -57.7806 1581.82 -82.5464 1612.38 -82.5464C1642.93 -82.5464 1667.69 -57.7806 1667.69 -27.229" stroke="#6BAEE2" stroke-width="5"/>
<path d="M1612.42 28.3569C1642.97 28.3569 1667.73 53.1227 1667.73 83.6743C1667.73 114.226 1642.97 138.992 1612.42 138.992C1581.86 138.992 1557.1 114.226 1557.1 83.6743" stroke="#6BAEE2" stroke-width="5"/>
<path d="M1540.81 43.7788C1550.82 53.7905 1557.01 67.6185 1557.01 82.8943" stroke="#D6E9E2" stroke-width="5"/>
<path d="M1558.39 364.889V591" stroke="#D6E9E2" stroke-width="5"/>
<path d="M1614.13 474.64C1614.13 505.16 1589.39 529.902 1558.87 529.902" stroke="#D6E9E2" stroke-width="5"/>
<path d="M1558.37 418.988H1543.6" stroke="#D6E9E2" stroke-width="5"/>
<path d="M1557.98 529.667H1543.6" stroke="#D6E9E2" stroke-width="5"/>
<path d="M1557.98 474.326H1544.3" stroke="#D6E9E2" stroke-width="5"/>
<path d="M1541.98 489.704C1552 499.716 1558.19 513.544 1558.19 528.82" stroke="#D6E9E2" stroke-width="5"/>
<path d="M1541.74 422.332C1546.78 420.816 1552.13 420 1557.67 420" stroke="#D6E9E2" stroke-width="5"/>
<path d="M1613.58 364.033V137.922" stroke="#D6E9E2" stroke-width="5"/>
<path d="M1669.09 254.912C1699.65 254.912 1724.41 279.677 1724.41 310.229C1724.41 340.781 1699.65 365.546 1669.09 365.546C1638.54 365.546 1613.78 340.781 1613.78 310.229" stroke="#D6E9E2" stroke-width="5"/>
<path d="M1669.06 254.643C1638.51 254.643 1613.74 229.877 1613.74 199.326C1613.74 168.774 1638.51 144.008 1669.06 144.008C1699.61 144.008 1724.37 168.774 1724.37 199.326" stroke="#D6E9E2" stroke-width="5"/>
<path d="M1668.51 254.283C1668.51 223.763 1693.26 199.021 1723.78 199.021" stroke="#D6E9E2" stroke-width="5"/>
<path d="M1668.92 364.735V138.624" stroke="#D6E9E2" stroke-width="5"/>
<path d="M1558.24 364.735V138.624" stroke="#D6E9E2" stroke-width="5"/>
<path d="M1557.87 254.708C1557.87 285.228 1533.13 309.971 1502.61 309.971" stroke="#D6E9E2" stroke-width="5"/>
<path d="M1514.47 309.934H1669.5" stroke="#D6E9E2" stroke-width="5"/>
<path d="M1724.66 199.258H1739.04" stroke="#D6E9E2" stroke-width="5"/>
<path d="M1514.47 199.258H1558.77" stroke="#D6E9E2" stroke-width="5"/>
<path d="M1513.78 254.596H1558.38" stroke="#D6E9E2" stroke-width="5"/>
<path d="M1669.5 142.874H1738.35" stroke="#D6E9E2" stroke-width="5"/>
<path d="M1558.32 143.745C1588.87 143.745 1613.64 168.51 1613.64 199.062C1613.64 229.614 1588.87 254.379 1558.32 254.379C1527.77 254.379 1503 229.614 1503 199.062" stroke="#D6E9E2" stroke-width="5"/>
<path d="M1558.17 254.703C1588.69 254.703 1613.43 279.445 1613.43 309.966" stroke="#D6E9E2" stroke-width="5"/>
<path d="M1777.71 -81.0332V145.078" stroke="#D6E9E2" stroke-width="5"/>
<path d="M1888.39 -81.0332V145.078" stroke="#D6E9E2" stroke-width="5"/>
<path d="M1832.87 28.0884C1802.32 28.0884 1777.56 3.32257 1777.56 -27.229C1777.56 -57.7806 1802.32 -82.5464 1832.87 -82.5464C1863.42 -82.5464 1888.19 -57.7806 1888.19 -27.229" stroke="#D6E9E2" stroke-width="5"/>
<path d="M1832.91 28.3569C1863.46 28.3569 1888.23 53.1227 1888.23 83.6743C1888.23 114.226 1863.46 138.992 1832.91 138.992C1802.36 138.992 1777.59 114.226 1777.59 83.6743" stroke="#D6E9E2" stroke-width="5"/>
<path d="M1833.46 28.7173C1833.46 59.2376 1808.71 83.9799 1778.19 83.9799" stroke="#D6E9E2" stroke-width="5"/>
<path d="M1833.05 -81.7349V144.376" stroke="#D6E9E2" stroke-width="5"/>
<path d="M1777.3 83.7422H1762.92" stroke="#D6E9E2" stroke-width="5"/>
<path d="M1777.3 28.4043H1763.62" stroke="#D6E9E2" stroke-width="5"/>
<path d="M1832.47 139.081H1763.62" stroke="#D6E9E2" stroke-width="5"/>
<path d="M1761.31 43.7788C1771.32 53.7905 1777.51 67.6185 1777.51 82.8943" stroke="#D6E9E2" stroke-width="5"/>
<path d="M125.714 722.967V949.078" stroke="#D6E9E2" stroke-width="5"/>
<path d="M70.1982 832.088C39.6466 832.088 14.8809 807.323 14.8809 776.771C14.8809 746.219 39.6466 721.454 70.1982 721.454C100.75 721.454 125.516 746.219 125.516 776.771" stroke="#D6E9E2" stroke-width="5"/>
<path d="M70.2373 832.357C100.789 832.357 125.555 857.123 125.555 887.674C125.555 918.226 100.789 942.992 70.2373 942.992C39.6857 942.992 14.9199 918.226 14.9199 887.674" stroke="#D6E9E2" stroke-width="5"/>
<path d="M70.7802 832.717C70.7802 863.238 46.0379 887.98 15.5176 887.98" stroke="#D6E9E2" stroke-width="5"/>
<path d="M70.376 722.265V948.376" stroke="#D6E9E2" stroke-width="5"/>
<path d="M181.053 722.265V948.376" stroke="#D6E9E2" stroke-width="5"/>
<path d="M181.423 832.292C181.423 801.772 206.165 777.029 236.685 777.029" stroke="#D6E9E2" stroke-width="5"/>
<path d="M224.819 777.066H69.7998" stroke="#D6E9E2" stroke-width="5"/>
<path d="M14.6304 887.742H0.251953" stroke="#D6E9E2" stroke-width="5"/>
<path d="M224.819 887.742H180.525" stroke="#D6E9E2" stroke-width="5"/>
<path d="M225.518 832.404H180.917" stroke="#D6E9E2" stroke-width="5"/>
<path d="M180.972 943.255C150.42 943.255 125.654 918.49 125.654 887.938C125.654 857.386 150.42 832.621 180.972 832.621C211.523 832.621 236.289 857.386 236.289 887.938" stroke="#D6E9E2" stroke-width="5"/>
<path d="M181.125 832.297C150.605 832.297 125.862 807.555 125.862 777.035" stroke="#D6E9E2" stroke-width="5"/>
<path d="M180.922 668.012H195.692" stroke="#D6E9E2" stroke-width="5"/>
<path d="M181.313 612.671H194.995" stroke="#D6E9E2" stroke-width="5"/>
<path d="M-29.5742 612.671H15.0245" stroke="#6BAEE2" stroke-width="5"/>
<path d="M14.8154 612.781C45.3357 612.781 70.078 637.523 70.078 668.043" stroke="#6BAEE2" stroke-width="5"/>
<path d="M197.557 664.667C192.512 666.183 187.164 667 181.626 667" stroke="#D6E9E2" stroke-width="5"/>
<path d="M182.08 1168.03V941.922" stroke="#D6E9E2" stroke-width="5"/>
<path d="M126.88 1058.64C96.3283 1058.64 71.5625 1033.88 71.5625 1003.33C71.5625 972.774 96.3283 948.008 126.88 948.008C157.431 948.008 182.197 972.774 182.197 1003.33" stroke="#D6E9E2" stroke-width="5"/>
<path d="M126.337 1058.28C126.337 1027.76 151.079 1003.02 181.6 1003.02" stroke="#D6E9E2" stroke-width="5"/>
<path d="M182.486 1003.26H196.865" stroke="#D6E9E2" stroke-width="5"/>
<path d="M127.318 946.874H196.169" stroke="#D6E9E2" stroke-width="5"/>
<path d="M235.532 722.967V949.078" stroke="#D6E9E2" stroke-width="5"/>
<path d="M346.211 722.967V949.078" stroke="#D6E9E2" stroke-width="5"/>
<path d="M291.277 832.717C291.277 863.238 266.535 887.98 236.015 887.98" stroke="#D6E9E2" stroke-width="5"/>
<path d="M290.873 722.265V948.376" stroke="#D6E9E2" stroke-width="5"/>
<path d="M401.55 722.265V948.376" stroke="#D6E9E2" stroke-width="5"/>
<path d="M401.92 832.292C401.92 801.772 426.662 777.029 457.183 777.029" stroke="#D6E9E2" stroke-width="5"/>
<path d="M235.517 777.066H220.747" stroke="#D6E9E2" stroke-width="5"/>
<path d="M445.316 777.066H290.294" stroke="#D6E9E2" stroke-width="5"/>
<path d="M235.126 887.742H220.747" stroke="#D6E9E2" stroke-width="5"/>
<path d="M445.316 887.742H401.022" stroke="#D6E9E2" stroke-width="5"/>
<path d="M235.125 832.404H221.443" stroke="#D6E9E2" stroke-width="5"/>
<path d="M446.013 832.404H401.414" stroke="#D6E9E2" stroke-width="5"/>
<path d="M290.294 943.081H221.443" stroke="#D6E9E2" stroke-width="5"/>
<path d="M401.469 943.255C370.917 943.255 346.151 918.49 346.151 887.938C346.151 857.386 370.917 832.621 401.469 832.621C432.02 832.621 456.786 857.386 456.786 887.938" stroke="#D6E9E2" stroke-width="5"/>
<path d="M401.623 832.297C371.103 832.297 346.36 807.555 346.36 777.035" stroke="#D6E9E2" stroke-width="5"/>
<path d="M219.13 847.779C229.142 857.791 235.332 871.619 235.332 886.894" stroke="#D6E9E2" stroke-width="5"/>
<path d="M218.882 780.41C223.927 778.895 229.274 778.078 234.812 778.078" stroke="#D6E9E2" stroke-width="5"/>
<path d="M401.401 722.111V496" stroke="#D6E9E2" stroke-width="5"/>
<path d="M346.24 612.989C376.792 612.989 401.558 637.755 401.558 668.307C401.558 698.858 376.792 723.624 346.24 723.624C315.689 723.624 290.923 698.858 290.923 668.307" stroke="#D6E9E2" stroke-width="5"/>
<path d="M125.743 612.989C156.295 612.989 181.061 637.755 181.061 668.307C181.061 698.858 156.295 723.624 125.743 723.624C95.1916 723.624 70.4258 698.858 70.4258 668.307" stroke="#6BAEE2" stroke-width="5"/>
<path d="M346.201 612.721C315.65 612.721 290.884 587.955 290.884 557.403C290.884 526.852 315.65 502.086 346.201 502.086C376.753 502.086 401.519 526.852 401.519 557.403" stroke="#D6E9E2" stroke-width="5"/>
<path d="M345.658 612.361C345.658 581.84 370.401 557.098 400.921 557.098" stroke="#D6E9E2" stroke-width="5"/>
<path d="M290.696 832.088C260.145 832.088 235.379 807.323 235.379 776.771C235.379 746.219 260.145 721.454 290.696 721.454C321.248 721.454 346.014 746.219 346.014 776.771" stroke="#6BAEE2" stroke-width="5"/>
<path d="M290.732 832.357C321.284 832.357 346.05 857.123 346.05 887.675C346.05 918.226 321.284 942.992 290.732 942.992C260.181 942.992 235.415 918.226 235.415 887.675" stroke="#6BAEE2" stroke-width="5"/>
<path d="M346.062 722.813V496.702" stroke="#D6E9E2" stroke-width="5"/>
<path d="M235.016 612.786C235.016 643.306 210.273 668.048 179.753 668.048" stroke="#D6E9E2" stroke-width="5"/>
<path d="M401.419 668.012H416.189" stroke="#D6E9E2" stroke-width="5"/>
<path d="M191.62 668.012H346.642" stroke="#D6E9E2" stroke-width="5"/>
<path d="M401.811 557.333H416.189" stroke="#D6E9E2" stroke-width="5"/>
<path d="M401.811 612.671H415.49" stroke="#D6E9E2" stroke-width="5"/>
<path d="M190.923 612.671H235.522" stroke="#D6E9E2" stroke-width="5"/>
<path d="M346.642 500.951H415.49" stroke="#D6E9E2" stroke-width="5"/>
<path d="M235.313 612.781C265.834 612.781 290.576 637.523 290.576 668.043" stroke="#D6E9E2" stroke-width="5"/>
<path d="M417.806 597.296C407.795 587.285 401.604 573.456 401.604 558.181" stroke="#D6E9E2" stroke-width="5"/>
<path d="M418.054 664.667C413.009 666.183 407.661 667 402.123 667" stroke="#D6E9E2" stroke-width="5"/>
<path d="M456.215 722.967V949.078" stroke="#D6E9E2" stroke-width="5"/>
<path d="M511.376 832.088C480.824 832.088 456.059 807.323 456.059 776.771C456.059 746.219 480.824 721.454 511.376 721.454C541.928 721.454 566.693 746.219 566.693 776.771" stroke="#D6E9E2" stroke-width="5"/>
<path d="M511.958 832.717C511.958 863.238 487.216 887.98 456.695 887.98" stroke="#D6E9E2" stroke-width="5"/>
<path d="M456.199 777.066H441.43" stroke="#D6E9E2" stroke-width="5"/>
<path d="M665.996 777.066H510.974" stroke="#D6E9E2" stroke-width="5"/>
<path d="M455.808 887.742H441.43" stroke="#D6E9E2" stroke-width="5"/>
<path d="M455.808 832.404H442.126" stroke="#D6E9E2" stroke-width="5"/>
<path d="M439.81 847.779C449.821 857.791 456.011 871.619 456.011 886.894" stroke="#D6E9E2" stroke-width="5"/>
<path d="M439.562 780.41C444.607 778.895 449.954 778.078 455.492 778.078" stroke="#D6E9E2" stroke-width="5"/>
<path d="M566.92 612.989C597.472 612.989 622.237 637.755 622.237 668.307C622.237 698.858 597.472 723.624 566.92 723.624C536.368 723.624 511.603 698.858 511.603 668.307" stroke="#D6E9E2" stroke-width="5"/>
<path d="M456.066 722.813V496.702" stroke="#D6E9E2" stroke-width="5"/>
<path d="M455.696 612.786C455.696 643.306 430.954 668.048 400.434 668.048" stroke="#D6E9E2" stroke-width="5"/>
<path d="M412.3 668.012H567.322" stroke="#D6E9E2" stroke-width="5"/>
<path d="M412.3 557.333H456.593" stroke="#D6E9E2" stroke-width="5"/>
<path d="M411.604 612.671H456.202" stroke="#D6E9E2" stroke-width="5"/>
<path d="M455.993 612.781C486.513 612.781 511.256 637.523 511.256 668.043" stroke="#D6E9E2" stroke-width="5"/>
<path d="M456.147 501.822C486.699 501.822 511.465 526.588 511.465 557.14C511.465 587.691 486.699 612.457 456.147 612.457C425.596 612.457 400.83 587.691 400.83 557.14" stroke="#6BAEE2" stroke-width="5"/>
</g>
</g>
<defs>
<clipPath id="clip0_698_11464">
<rect width="1976" height="1200" fill="white"/>
</clipPath>
</defs>
</svg>
